<svg viewBox="0 0 738.25 454.21" xmlns="http://www.w3.org/2000/svg">
	<g id="main">
		<g fill="#c7dddd">
			<path d="m161.64 119.83 14.07 35.3 35.29-14.07-14.07-35.3zm37.52 16.17-18.36 7.32-7.31-18.36 18.35-7.31z" />
			<path d="m305.07 42.84-3 20.54 20.54 3 3-20.54zm13.35 17.87-10.68-1.54 1.55-10.69 10.71 1.52z" />
			<circle cx="572.46" cy="106.22" r="9.37" />
			<circle cx="606.83" cy="106.22" r="9.37" />
			<circle cx="641.21" cy="106.22" r="9.37" />
			<circle cx="675.58" cy="106.22" r="9.37" />
			<circle cx="709.96" cy="106.22" r="9.37" />
			<circle cx="572.46" cy="139.01" r="9.37" />
			<circle cx="606.83" cy="139.01" r="9.37" />
			<circle cx="641.21" cy="139.01" r="9.37" />
			<circle cx="675.58" cy="139.01" r="9.37" />
			<circle cx="709.96" cy="139.01" r="9.37" />
			<circle cx="572.46" cy="171.8" r="9.37" />
			<circle cx="606.83" cy="171.8" r="9.37" />
			<circle cx="641.21" cy="171.8" r="9.37" />
			<circle cx="675.58" cy="171.8" r="9.37" />
			<circle cx="709.96" cy="171.8" r="9.37" />
			<circle cx="572.46" cy="204.58" r="9.37" />
			<circle cx="606.83" cy="204.58" r="9.37" />
			<circle cx="641.21" cy="204.58" r="9.37" />
			<circle cx="675.58" cy="204.58" r="9.37" />
			<circle cx="709.96" cy="204.58" r="9.37" />
			<circle cx="572.46" cy="237.37" r="9.37" />
			<circle cx="606.83" cy="237.37" r="9.37" />
			<circle cx="641.21" cy="237.37" r="9.37" />
			<circle cx="675.58" cy="237.37" r="9.37" />
			<circle cx="709.96" cy="237.37" r="9.37" />
			<circle cx="28.95" cy="53.74" r="6.67" />
			<circle cx="53.42" cy="53.74" r="6.67" />
			<circle cx="77.9" cy="53.74" r="6.67" />
			<circle cx="102.37" cy="53.74" r="6.67" />
			<circle cx="126.84" cy="53.74" r="6.67" />
			<circle cx="28.95" cy="77.09" r="6.67" />
			<circle cx="53.42" cy="77.09" r="6.67" />
			<circle cx="77.9" cy="77.09" r="6.67" />
			<circle cx="102.37" cy="77.09" r="6.67" />
			<circle cx="126.84" cy="77.09" r="6.67" />
			<circle cx="28.95" cy="100.43" r="6.67" />
			<circle cx="53.42" cy="100.43" r="6.67" />
			<circle cx="77.9" cy="100.43" r="6.67" />
			<circle cx="102.37" cy="100.43" r="6.67" />
			<circle cx="126.84" cy="100.43" r="6.67" />
			<circle cx="28.95" cy="123.77" r="6.67" />
			<circle cx="53.42" cy="123.77" r="6.67" />
			<circle cx="77.9" cy="123.77" r="6.67" />
			<circle cx="102.37" cy="123.77" r="6.67" />
			<circle cx="126.84" cy="123.77" r="6.67" />
			<circle cx="28.95" cy="147.11" r="6.67" />
			<circle cx="53.42" cy="147.11" r="6.67" />
			<circle cx="77.9" cy="147.11" r="6.67" />
			<circle cx="102.37" cy="147.11" r="6.67" />
			<circle cx="126.84" cy="147.11" r="6.67" />
			<path
				d="m55.34 445.25s-62-48.34-37-101.72 108.4-66.73 110.2-148.53 95.66-40.53 173.56-69c90.62-33-18.5-113.47 77.97-124.75 119.18-13.94 280.28 92.17 280.28 156.91 0 61.08-69.68 85-21.34 128s86.33 48.29 84.33 93.15-27 66.7-27 66.7z"
			/>
		</g>
		<path d="m135.84 340.01h143.86v6.71h-143.86z" fill="#96a9a8" />
		<path d="m145.36 345.86h127.27v13.54h-127.27z" fill="#96a9a8" />
		<path d="m154.43 352.63h3.61v79.58h-3.61z" fill="#96a9a8" />
		<path d="m253.43 352.63h3.61v79.58h-3.61z" fill="#96a9a8" />
		<path d="m108.84 246.89h77.56v5.2h-77.56z" fill="#96a9a8" transform="matrix(-1 0 0 -1 295.23 498.98)" />
		<path d="m150.81 213.82h7.22v33.91h-7.22z" fill="#7c9391" />
		<path d="m141.84 213.82h5.28v33.91h-5.28z" fill="#7c9391" transform="matrix(.97503322 .22205905 -.22205905 .97503322 54.86 -26.32)" />
		<path d="m118.88 228.6h33.91v5.28h-33.91z" fill="#7c9391" transform="matrix(.42056083 -.90726434 .90726434 .42056083 -131.09 257.23)" />
		<path d="m158.04 217.64h7.22v30.09h-7.22z" fill="#7c9391" />
		<path d="m165.26 220.86h7.22v26.87h-7.22z" fill="#7c9391" />
		<path d="m51 410.48s-10.33-73.34-48.33-82.67c0 0-6.67 8.77 6.67 17.72s9 13 11.66 21 13 7.73 14 18.7 16 25.25 16 25.25z" fill="#7c9391" />
		<path d="m50.66 410.48s-9-73.51 25.26-92.37c0 0 8.71 6.74-1.85 18.84s-5.33 14.84-5.84 23.25-10.55 10.85-8.67 21.7-8.9 28.58-8.9 28.58z" fill="#7c9391" />
		<path d="m52.37 407s22.63-55.9 54.49-55.77c0 0 3.53 8.24-8.77 12.68s-9.66 8.45-13.35 14.24-11.74 3.54-14.74 12.01-17.63 16.84-17.63 16.84z" fill="#7c9391" />
		<path d="m68.34 439.16h-34.5l-5-35.5h45.5z" fill="#96a9a8" />
		<path d="m696.28 415.08s8.67-61.55 40.57-69.38c0 0 5.59 7.36-5.6 14.87s-7.55 10.87-9.79 17.58-10.91 6.49-11.75 15.7-13.43 21.23-13.43 21.23z" fill="#7c9391" />
		<path d="m696.57 415.08s7.57-61.69-21.2-77.53c0 0-7.32 5.66 1.55 15.82s4.48 12.45 4.9 19.52 8.86 9.1 7.28 18.2 7.47 23.99 7.47 23.99z" fill="#7c9391" />
		<path d="m695.13 412.15s-19-46.9-45.73-46.8c0 0-3 6.92 7.36 10.65s8.11 7.09 11.2 11.95 9.9 3 12.38 10.08 14.79 14.12 14.79 14.12z" fill="#7c9391" />
		<path d="m681.73 439.16h28.96l4.2-29.8h-38.19z" fill="#96a9a8" />
		<path d="m559.53 280.16v159.71h65.91v-159.71zm60.12 154.16h-54.33v-46.25h54.33zm0-51.8h-54.33v-46.24h54.33zm0-51.79h-54.33v-46.25h54.33z" fill="#96a9a8" />
		<path d="m594.15 290.83h8.5v39.9h-8.5z" fill="#7c9391" />
		<path d="m583.59 290.83h6.21v39.9h-6.21z" fill="#7c9391" transform="matrix(.97503322 .22205905 -.22205905 .97503322 83.67 -122.53)" />
		<path d="m573.42 291.37h6.21v39.9h-6.21z" fill="#7c9391" transform="matrix(.90726434 .42056083 -.42056083 .90726434 184.4 -213.6)" />
		<path d="m602.65 295.33h8.5v35.4h-8.5z" fill="#7c9391" />
		<path d="m611.15 288.08h8.5v42.65h-8.5z" fill="#7c9391" />
		<rect fill="#526c6d" height="14.93" rx="7.47" width="730.46" x=".28" y="439.28" />
		<path d="m309.34 333.14-11 106.14h121l-11-106.14z" fill="#212828" />
		<rect fill="#181e1f" height="272" rx="17.5" width="400.96" x="163.38" y="133.14" />
		<path d="m331.29 242.53h-.44z" fill="#596ab2" />
		<path d="m344.05 242.53h.44z" fill="#596ab2" />
		<path d="m313.86 272.46a.44.44 0 0 1 0 .43z" fill="#596ab2" />
		<path d="m119.72 425.14h389.62v14.14h-389.62z" fill="#181e1f" />
		<path d="m613.16 442.93h-55.39s-22.88-9.8 0-27.86 128.84-31 122.82 27.86z" fill="#181e1f" />
		<rect fill="#181e1f" height="228.34" rx="7.25" width="374.92" x="176.4" y="146.14" />
		<path d="m625.3 320.31s6.2-16.31-10.08-16.31c0 0-12 1.18-11.93 12 .12 12.46 7.86 14.75 7.86 14.75l8-1.09z" fill="#1e1e1e" />
		<path d="m661.92 442.93-.08 3.82.08 2.31s14.67-.46 13.58-2.31-10.41-2.11-10.41-2.11z" fill="#2d2d2d" />
		<path d="m616.58 395.89 4.49 8.42s4.9 2.34 13.35 3c9.26.68 22.3-.18 26.35 4.12 7.75 8.24 14.4 33.86 14.4 33.86l3.25-2.11c1.4-6.57 3-58.85-39.78-54.5-20.11 2.01-22.06 7.21-22.06 7.21z" fill="#2d2d2d" />
		<path d="m604.24 322.57s-4.24-2.93-7.24 2.07 2 8.5-4.5 9.84-10 3.33-9.33 7.83-1 9.33-4.17 11-5 5-2.66 9 7.16 8 8.66 7.67 22.74-26.93 22.74-26.93 3.76.43 2.43-4.91-2.83-3.66-1.67-7.41-4.26-8.16-4.26-8.16z" fill="#1e1e1e" />
		<path d="m603.25 397.39 4.49 8.42s4.89 2.34 13.35 3c9.25.68 22.3-.18 26.35 4.12 7.75 8.24 14.4 33.86 14.4 33.86l3.25-2.11c1.39-6.57 3-58.85-39.79-54.5-20.1 2.01-22.05 7.21-22.05 7.21z" fill="#3a3a3a" />
		<path
			d="m613.17 338.48-5.43-1.79a27.72 27.72 0 0 0 -16.74 10.45c-6.66 9-13.26 44.2 5.07 41.7 0 0 2.43 9 4.6 11.64s7.07 5.33 7.07 5.33 4.1-13 14.76-13.83l19.84-2.34-4.17-10.64s9.17-4.5 4.17-17.84-10.28-25.41-19.81-24.79-9.36 2.11-9.36 2.11z"
			fill="#d64541"
		/>
		<path d="m624.91 315s2.66 18.67-5.84 16.83v4.5h3.46s-1.37 7.21-6.71 6.67-8.08-6.33-8.08-6.33h2.83l.34-5.17s1.66-4.5 0-7c0 0-6.5-4.33.83-5.17.77-1.89 8.91-4.39 11.79-6.41.85.08 1.32.76 1.38 2.08z" fill="#faab6c" />
		<path d="m618.8 394.62-8.34-5.45a.47.47 0 0 1 .18-.86l6.82-1.17.83.43a.54.54 0 0 0 .21.05l5.5.13a.46.46 0 0 1 .35.76l-4.93 6a.46.46 0 0 1 -.62.11z" fill="#e5e5e5" />
		<path d="m622.4 365.26 36.5-1.54a1.4 1.4 0 0 1 1.43 1.66l-5.12 25.88a1.38 1.38 0 0 1 -1.27 1.12l-34.78 2.47a1.4 1.4 0 0 1 -1.49-1.57l3.4-26.8a1.39 1.39 0 0 1 1.33-1.22z" fill="#f4f5f9" />
		<path d="m675.17 441.08-.08 3.81.08 2.31s14.67-.45 13.58-2.31-10.41-2.1-10.41-2.1z" fill="#2d2d2d" />
		<path d="m107.88 429.14a4.66 4.66 0 0 1 -.45.58c-1.18 1.36-4.18 4.49-4.18 4.49s-1.5 3-.87 4.06l.62 1h11.63s.43-1.51-2-2.51a8.68 8.68 0 0 1 -3.59-2.56z" fill="#2d2d2d" />
		<path d="m86.15 344.33s-.55 9.6 3.11 15.25c4.58 7.06 11.4 46 .83 74.63h5.75s25.51-41 13.84-88l-9.58-13.05z" fill="#2d2d2d" />
		<path d="m99.53 343.33s.36 11.49 3.84 17.24c4 6.57 10.54 45 0 73.64h5.75s25.63-42 14-89l-9.57-13.05z" fill="#3a3a3a" />
		<path d="m101.35 263.99-1.25 1.96v4.77h7.98v-7.98l-3.36-3.06z" fill="#faab6c" />
		<path d="m96 243.36s4.56-8.3 11.19-5.6 6.64-2.32 11.41-.54-2 9.67-2 9.67l-3 13.35-8-2.38c.54 5.39-2.75 5.89-5.51 8.1.01.04-15.28-16.96-4.09-22.6z" fill="#1e1e1e" />
		<path d="m110.08 273.77h33.16v19.87h-33.16z" fill="#596ab2" transform="matrix(.13191038 -.99126165 .99126165 .13191038 -171.28 371.81)" />
		<path d="m116.6 246.89s-2 29.07-10.35 18.75c-1.36-1.68-.64-7.78-.64-7.78s-2 1.45-2.75-2.7 2.76-3.07 2.76-3.07 1-2.9 2.27-3c2.4-.18 7.18 1.64 8.71-2.2z" fill="#faab6c" />
		<path d="m112.65 273.38h28.03v16.8h-28.03z" fill="#f4f5f9" transform="matrix(.13191038 -.99126165 .99126165 .13191038 -169.37 370.14)" />
		<path
			d="m83.41 330s-11.6-55.57 16.69-59.23c21.59-2.78 23.34 10.58 24.45 15.55s6 20.67 6 20.67.87-10.71 3.36-14l.62-3.94 4.25.41v3.53s2.39 20.18 0 27.92-8.19 14.14-16.48 2c0 0 2.49 10.69.83 15.25v6.22s-28.47 5.39-37 0v-5.81z"
			fill="#d64541"
		/>
		<path d="m134.57 289s-3.32-6-1.24-5 3.2.93 3.3.17l.51-3.87s3.94-.54 1.68 9.15z" fill="#faab6c" />
		<path d="m124.85 266.58h7.37v2.55h-7.37z" fill="#9494bf" transform="matrix(.9900973 .14038284 -.14038284 .9900973 38.87 -15.39)" />
		<path d="m94.71 429.14a4.66 4.66 0 0 1 -.45.58c-1.17 1.36-4.17 4.49-4.17 4.49s-1.5 3-.88 4.06l.63 1h11.62s.43-1.51-2-2.51a8.59 8.59 0 0 1 -3.59-2.56z" fill="#2d2d2d" />
		<path d="m363.86 374.48h-180.21a7.25 7.25 0 0 1 -7.25-7.25v-213.83a7.25 7.25 0 0 1 7.25-7.26h180.21z" fill="#313c3d" />
		<path d="m188.59 159.23h163.96v7.03h-163.96z" fill="#526c6d" />
		<path d="m199.67 175.34h152.88v7.03h-152.88z" fill="#526c6d" />
		<path d="m206.84 191.46h91.5v7.03h-91.5z" fill="#526c6d" />
		<path d="m206.84 207.57h112v7.03h-112z" fill="#526c6d" />
		<path d="m199.67 223.69h152.88v7.03h-152.88z" fill="#526c6d" />
		<path d="m188.59 239.8h95.5v7.03h-95.5z" fill="#526c6d" />
		<path d="m188.59 255.92h142.71v7.03h-142.71z" fill="#526c6d" />
		<path d="m199.67 272.03h145.92v7.03h-145.92z" fill="#526c6d" />
		<path d="m206.84 288.15h61.5v7.03h-61.5z" fill="#526c6d" />
		<path d="m221.09 304.27h88.5v7.03h-88.5z" fill="#526c6d" />
		<path d="m206.84 320.38h145.71v7.03h-145.71z" fill="#526c6d" />
		<path d="m199.67 336.5h152.88v7.03h-152.88z" fill="#526c6d" />
		<path d="m188.59 352.61h163.96v7.03h-163.96z" fill="#526c6d" />
		<path d="m363.86 374.48h180.21a7.26 7.26 0 0 0 7.25-7.25v-213.83a7.26 7.26 0 0 0 -7.25-7.26h-180.21z" fill="#f4f4f5" />
		<path d="m376.24 185.08h73.51v60.51h-73.51z" fill="#c7dddd" />
		<path d="m376.24 253.29h50.95v50.95h-50.95z" fill="#c7dddd" />
		<path d="m432.05 253.29h50.95v50.95h-50.95z" fill="#c7dddd" />
		<path d="m487.85 253.29h50.95v50.95h-50.95z" fill="#c7dddd" />
		<path d="m459.21 185.1h79.58v26.77h-79.58z" fill="#c7dddd" />
		<path d="m459.21 218.82h79.58v26.77h-79.58z" fill="#c7dddd" />
		<path d="m518.88 156.81h19.92v2.71h-19.92z" fill="#c7dddd" />
		<path d="m518.88 162.95h19.92v2.71h-19.92z" fill="#c7dddd" />
		<path d="m518.88 169.08h19.92v2.71h-19.92z" fill="#c7dddd" />
		<rect fill="#dfeceb" height="17.73" rx="8.86" width="17.73" x="463.57" y="189.62" />
		<rect fill="#dfeceb" height="17.73" rx="8.86" width="17.73" x="463.57" y="223.34" />
		<path d="m375.23 156.81h46.44v14.99h-46.44z" fill="#c7dddd" />
		<path d="m346.64 63.45s-7.26-12.61 1.54-17c0 0 8.06-7.47 17.44-2.64s6.89 14 5.06 20.53-24.04-.89-24.04-.89z" fill="#1e1e1e" />
		<path d="m331.73 115.92s-9 1.67-8-14.66 15.06-32.66 29.15-32.92l14.12-.26s16.83 4.51 26 30.18-42.22 17.74-42.22 17.74z" fill="#d64541" />
		<path d="m349.06 67.78s9.36 11.29 18.74.44c0 0 4.64-.66 2.88-3.89 0 0-2.64-1.46-1.76-5.28 0 0-15.25 4.11-20.52 0 0 0 .88 1.76-1.76 4.4 0 0-2.86 2.55 2.42 4.33z" fill="#faab6c" />
		<path d="m347.12 172.22s-26.69-46.64-19.48-55.06 13.71-7.45 19.48-4.57 12.9 5.33 20.47 1 15.6-5.57 21.37-.52 8.61 21.85-15.87 59.15l-5.21-1.22 7.85-36.72s-21.21 5.53-30.83 0c0 0 4.33 20.19 6.5 36z" fill="#2d2d2d" />
		<rect fill="#f4f5f9" height="27" rx="1.47" width="41.5" x="338.57" y="93.42" />
		<path d="m347.57 168.26c-.67.16-.45 4-.45 4s-3.72 5.2-4.39 6.37.17 3.67 1 3.83 9.15-8.77 9.15-8.77l-1.48-3.43z" fill="#2d2d2d" />
		<path d="m371.23 166.26-3.35 4.74s-1.33 11 1.68 11.48 3.53-10.21 3.53-10.21z" fill="#2d2d2d" />
		<path d="m376.24 312.94h162.55v52.2h-162.55z" fill="#c7dddd" />
		<path d="m381.81 47.22h5.63a0 0 0 0 1 0 0v4.57a2.82 2.82 0 0 1 -2.82 2.82 2.82 2.82 0 0 1 -2.82-2.82v-4.57a0 0 0 0 1 .01 0z" fill="#2d2d2d" transform="matrix(.98277445 .18480905 -.18480905 .98277445 16.04 -70.21)" />
		<path
			d="m392.86 44.38c.53-2.86-2.06-5.74-5.81-6.45s-7.21 1-7.75 3.9a4.47 4.47 0 0 0 .71 3.25 9.15 9.15 0 0 1 1.33 2.92 5.07 5.07 0 0 0 .66 1.66 7.34 7.34 0 0 1 2.72.18 12.41 12.41 0 0 1 2.83.83 5.16 5.16 0 0 0 1.19-1.27 8.84 8.84 0 0 1 2.28-2.2 4.46 4.46 0 0 0 1.84-2.82z"
			fill="#fee980"
		/>
		<rect fill="#fee980" height="6.53" rx=".65" transform="matrix(.8660254 -.5 .5 .8660254 26.61 204.02)" width="1.29" x="393.37" y="49.09" />
		<rect fill="#fee980" height="6.53" rx=".65" transform="matrix(.5 .8660254 -.8660254 .5 228.31 -301.46)" width="1.29" x="374.58" y="43.73" />
		<rect fill="#fee980" height="9.29" rx=".65" transform="matrix(-.18480905 .98277445 -.98277445 -.18480905 479.31 -320.11)" width="1.29" x="371.77" y="34.09" />
		<rect fill="#fee980" height="6.53" rx=".65" transform="matrix(.70710678 .70710678 -.70710678 .70710678 141.27 -270.49)" width="1.29" x="396.5" y="32.02" />
		<rect fill="#fee980" height="6.53" rx=".65" transform="matrix(.93092839 -.36520176 .36520176 .93092839 14.58 140.77)" width="1.29" x="378.72" y="28.59" />
		<rect fill="#fee980" height="7.43" rx=".65" transform="matrix(.98277445 .18480905 -.18480905 .98277445 12.29 -71.28)" width="1.29" x="387.86" y="26.58" />
		<rect fill="#fee980" height="9.59" rx=".65" transform="matrix(.23785542 -.97130057 .97130057 .23785542 260.96 422.66)" width="1.29" x="399.17" y="40.24" />
		<path d="m581.84 249.14h19.83l6.5 31.02h-20.83z" fill="#7c9391" />
		<path d="m586.7 260.31-10.17 19.85h6.97l6.34-17.85z" fill="#7c9391" />
		<path d="m192.39 35.89 77.88-9.29-36.8 67.3-11.67-18.63-29.29 25.44-20.6-25.16 35.54-24.96z" fill="#c7dddd" />
		<path d="m93.19 214.2s-13-41.16-26.12-37.5-68.66 26.92-67.07 36.4 14.24 40 24.61 39.64 46.93-21.67 46.93-21.67l19 11.64-8.1-15.81s13.26-5.9 10.75-12.7z" fill="#c7dddd" />
		<path d="m12.4 217.65 54.94-26.19 2 3.51-54 28.03z" fill="#f4f5f9" />
		<path d="m18.28 231.28 54.94-26.19 2 3.51-54 28.03z" fill="#f4f5f9" />
		<path d="m463.57 42.8a16.26 16.26 0 1 0 16.25 16.25 16.26 16.26 0 0 0 -16.25-16.25zm0 24.66a8.41 8.41 0 1 1 8.43-8.41 8.41 8.41 0 0 1 -8.43 8.41z" fill="#96a9a8" />
		<path d="m243.13 100.43a12.81 12.81 0 1 0 12.81 12.8 12.8 12.8 0 0 0 -12.81-12.8zm0 19.43a6.63 6.63 0 1 1 6.63-6.63 6.62 6.62 0 0 1 -6.63 6.63z" fill="#96a9a8" />
		<path d="m685 262.74a12.81 12.81 0 1 0 12.8 12.81 12.81 12.81 0 0 0 -12.8-12.81zm0 19.44a6.63 6.63 0 1 1 6.62-6.63 6.63 6.63 0 0 1 -6.62 6.63z" fill="#c7dddd" />
		<path d="m572 175.34 8.07 27.54 27.54-8.06-8.06-27.55zm27.07 14.8-14.33 4.2-4.16-14.34 14.32-4.19z" fill="#96a9a8" />
		<path d="m35.62 260.5 8.07 27.5 27.54-8-8.07-27.55zm27.06 14.8-14.32 4.2-4.19-14.33 14.32-4.17z" fill="#96a9a8" />
	</g>
</svg>
