<svg viewBox="0 0 776 524" xmlns="http://www.w3.org/2000/svg"><g id="main"><path d="m692.88 315.46 14.12 35.3 35.3-14.07-14.07-35.3zm37.52 16.13-18.4 7.32-7.31-18.36 18.35-7.31z" fill="var(--pages-home-images-background, #ededed)"/><path d="m583.12 296.43-3 20.54 20.54 3 3-20.54zm13.36 17.87-10.68-1.54 1.54-10.68 10.66 1.54z" fill="var(--pages-home-images-background, #ededed)"/><path d="m589.24 230.73-3 20.54 20.54 3 3-20.54zm13.35 17.87-10.68-1.55 1.54-10.68 10.69 1.54z" fill="#96a9a8"/><g fill="var(--pages-home-images-background, #ededed)"><circle cx="43.37" cy="48.61" r="9.37"/><circle cx="77.74" cy="48.61" r="9.37"/><circle cx="112.12" cy="48.61" r="9.37"/><circle cx="146.49" cy="48.61" r="9.37"/><circle cx="180.86" cy="48.61" r="9.37"/><circle cx="43.37" cy="81.4" r="9.37"/><circle cx="77.74" cy="81.4" r="9.37"/><circle cx="112.12" cy="81.4" r="9.37"/><circle cx="146.49" cy="81.4" r="9.37"/><circle cx="180.86" cy="81.4" r="9.37"/><circle cx="43.37" cy="114.18" r="9.37"/><circle cx="77.74" cy="114.18" r="9.37"/><circle cx="112.12" cy="114.18" r="9.37"/><circle cx="146.49" cy="114.18" r="9.37"/><circle cx="180.86" cy="114.18" r="9.37"/><circle cx="43.37" cy="146.97" r="9.37"/><circle cx="77.74" cy="146.97" r="9.37"/><circle cx="112.12" cy="146.97" r="9.37"/><circle cx="146.49" cy="146.97" r="9.37"/><circle cx="180.86" cy="146.97" r="9.37"/><circle cx="43.37" cy="179.76" r="9.37"/><circle cx="77.74" cy="179.76" r="9.37"/><circle cx="112.12" cy="179.76" r="9.37"/><circle cx="146.49" cy="179.76" r="9.37"/><circle cx="180.86" cy="179.76" r="9.37"/><circle cx="632.8" cy="121.77" r="6.67"/><circle cx="657.27" cy="121.77" r="6.67"/><circle cx="681.74" cy="121.77" r="6.67"/><circle cx="706.21" cy="121.77" r="6.67"/><circle cx="730.68" cy="121.77" r="6.67"/><circle cx="632.8" cy="145.11" r="6.67"/><circle cx="657.27" cy="145.11" r="6.67"/><circle cx="681.74" cy="145.11" r="6.67"/><circle cx="706.21" cy="145.11" r="6.67"/><circle cx="730.68" cy="145.11" r="6.67"/><circle cx="632.8" cy="168.45" r="6.67"/><circle cx="657.27" cy="168.45" r="6.67"/><circle cx="681.74" cy="168.45" r="6.67"/><circle cx="706.21" cy="168.45" r="6.67"/><circle cx="730.68" cy="168.45" r="6.67"/><circle cx="632.8" cy="191.79" r="6.67"/><circle cx="657.27" cy="191.79" r="6.67"/><circle cx="681.74" cy="191.79" r="6.67"/><circle cx="706.21" cy="191.79" r="6.67"/><circle cx="730.68" cy="191.79" r="6.67"/><circle cx="632.8" cy="215.14" r="6.67"/><circle cx="657.27" cy="215.14" r="6.67"/><circle cx="681.74" cy="215.14" r="6.67"/><circle cx="706.21" cy="215.14" r="6.67"/><circle cx="730.68" cy="215.14" r="6.67"/><path d="m68.11 498.11s-105.11-107.79-16.67-209.45c42.25-48.55 137.62 16.16 162.61-37.31 28.25-60.45-43-145.82 37.72-185.81 182.64-90.54 125.6 92.53 224.56 104.25 60.36 7.14 128.34-24.57 171.47 21.74 41.63 44.69 6.8 108.2 55.13 151.2s35.18 44.56 33.18 89.41-27 66.71-27 66.71z"/></g><path d="m336.37 392a14.29 14.29 0 0 0 -14.29-14.29h-169.94a14.29 14.29 0 0 0 -14.29 14.29v33h-.37a12.9 12.9 0 0 0 .37-3.07 13.33 13.33 0 1 0 -17.8 12.55v58h198.52v-46.23h17.8z" fill="#96a9a8"/><path d="m45.65 334.21v159.71h65.91v-159.71zm60.12 154.16h-54.33v-46.25h54.33zm0-51.8h-54.33v-46.25h54.33zm0-51.8h-54.33v-46.24h54.33z" fill="#96a9a8"/><path d="m80.27 344.87h8.5v39.9h-8.5z" fill="#7c9391"/><path d="m69.71 344.87h6.21v39.9h-6.21z" fill="#7c9391" transform="matrix(.97503322 .22205905 -.22205905 .97503322 82.84 -7.06)"/><path d="m59.55 345.42h6.21v39.9h-6.21z" fill="#7c9391" transform="matrix(.90726434 .42056083 -.42056083 .90726434 159.47 7.54)"/><path d="m88.77 349.37h8.5v35.4h-8.5z" fill="#7c9391"/><path d="m97.27 342.12h8.5v42.65h-8.5z" fill="#7c9391"/><path d="m67.96 303.19h19.83l6.5 31.02h-20.83z" fill="#7c9391"/><path d="m72.82 314.36-10.17 19.85h6.97l6.34-17.85z" fill="#7c9391"/><path d="m600.57 419.5h-23.22a7 7 0 0 1 -6.92-7.64l4.62-46.86a7 7 0 0 1 6.93-6.27h23.21a7 7 0 0 1 6.93 7.64l-4.63 46.84a7 7 0 0 1 -6.92 6.29z" fill="#577571"/><path d="m476.33 400.02h175.83v6.71h-175.83z" fill="#96a9a8"/><path d="m487.97 405.87h155.56v90.54h-155.56z" fill="#96a9a8"/><path d="m499.05 412.64h4.41v79.58h-4.41z" fill="#96a9a8"/><path d="m626.17 412.64h4.41v79.58h-4.41z" fill="#96a9a8"/><path d="m605.82 284.52h77.56v5.2h-77.56z" fill="#96a9a8" transform="matrix(-1 0 0 -1 1289.21 574.24)"/><path d="m647.8 251.45h7.22v33.91h-7.22z" fill="#7c9391"/><path d="m638.83 251.45h5.28v33.91h-5.28z" fill="#7c9391" transform="matrix(.97503322 .22205905 -.22205905 .97503322 75.62 -135.75)"/><path d="m615.87 266.23h33.91v5.28h-33.91z" fill="#7c9391" transform="matrix(.42056083 -.90726434 .90726434 .42056083 122.75 729.93)"/><path d="m655.03 255.27h7.22v30.09h-7.22z" fill="#7c9391"/><path d="m662.25 258.49h7.22v26.87h-7.22z" fill="#7c9391"/><path d="m702.93 466s9.39-66.61 43.9-75.08c0 0 6 8-6.06 16.09s-8.17 11.76-10.59 19-11.81 7-12.72 17-14.53 22.99-14.53 22.99z" fill="#7c9391"/><path d="m703.25 466s8.19-66.76-23-83.89c0 0-7.91 6.12 1.68 17.11s4.85 13.47 5.3 21.12 9.59 9.84 7.88 19.7 8.14 25.96 8.14 25.96z" fill="#7c9391"/><path d="m701.69 462.79s-20.55-50.79-49.48-50.63c0 0-3.21 7.48 7.95 11.51s8.78 7.68 12.13 12.94 10.71 3.22 13.39 10.9 16.01 15.28 16.01 15.28z" fill="#7c9391"/><path d="m687.19 492.01h31.33l4.54-32.24h-41.32z" fill="#96a9a8"/><rect fill="#dfeceb" height="17.73" rx="8.86" width="17.73" x="371.84" y="315.76"/><path d="m319.29 40-3.15-2.34s-12.4-13.52-3.56-16.57 10.42 7.31 10.42 7.31-.3-6.1 2.44-4.27-1.22 11.59-1.22 11.59z" fill="#faab6c"/><path d="m370.15 95.91s-8 2.11-13.35 26.73-9.19 47.83-4.06 51l-6.66 12.36s38.56 10.12 61.29 1.06l.13-7.11s6.05-14.74 1-56.31c0 0-.76-26.75-14.48-26.89s-23.87-.84-23.87-.84z" fill="var(--colors-primary, #d64541)"/><path d="m395 96.79s24.22 0 30.74 46c1 7.29-1.82 19.9-7 23.89a52.19 52.19 0 0 1 -35.06 10.35z" fill="var(--colors-primary, #d64541)"/><path d="m388.43 154.14s-17 3.91-19.42 7.23l-5.45 1.73 1.83 6.13 4.78.09s12 4.62 30.84 4.27-12.58-19.45-12.58-19.45z" fill="#4cc1f0"/><path d="m370.46 101.49-.31-5.58s-31-5.75-46-60.19l-8 1.93s12.17 73.84 40.15 87.35l2.13 9z" fill="var(--colors-primary, #d64541)"/><path d="m383.28 89.77s-7-1-7-16.2l11.46-11.14 6.18 5.75z" fill="#1e1e1e"/><path d="m404.61 70.42s-.16 21.22-9.25 22.43-14.26-4.81-14-8.54c0 0-8.72-4.27-.28-6.51l.24-8.76 13.68-7.78z" fill="#faab6c"/><path d="m376.23 73.57s-1-17.23 12.25-17.27c9.2 0 16.12 1.92 16.13 14.83 0 0-11.97-3.55-28.38 2.44z" fill="var(--colors-primary, #d64541)"/><path d="m384 84-2.66.35.3 11.63-3.27.55s8 10.28 14.69 6.63 2.36-6 2.36-6l-.13-5.27z" fill="#faab6c"/><path d="m380.9 72.08s17.09 4 21.63 3.29 3.71-1.81 8.45.07c0 0 1.54-1-6.37-4.31s-17.61-3.69-23.71.95z" fill="var(--colors-primary, #d64541)"/><path d="m542.34 371.66-.17-2.79a7.48 7.48 0 0 0 -6.4-3.39c-4.32.12-8.3-.42-7.22.31a5.77 5.77 0 0 0 1.89.89s-11.89-.43-8.88 1.85 13.52 4.52 13.52 4.52z" fill="#f2c27c"/><path d="m577 361s-14.41-2.83-22.6 26.88l-12.22-19-7.09 4.18s11.61 23.72 19.18 25.94 17.45-22.7 17.45-22.7z" fill="var(--colors-primary, #d64541)"/><path d="m607.32 326.07h58.95a3.14 3.14 0 0 1 3.13 3.14v17a3.13 3.13 0 0 1 -3.13 3.13h-48.15l-7.71 6.19v-6.19h-3.09a3.13 3.13 0 0 1 -3.13-3.13v-17a3.14 3.14 0 0 1 3.13-3.14z" fill="var(--colors-primary, #d64541)"/><circle cx="657.17" cy="337.9" fill="#f4f4f5" r="3.55"/><circle cx="643.57" cy="337.9" fill="#f4f4f5" r="3.55"/><circle cx="630" cy="337.9" fill="#f4f4f5" r="3.55"/><circle cx="616.42" cy="337.9" fill="#f4f4f5" r="3.55"/><path d="m562.12 331.32 2 10.78s-.33 14.3 7.44 12.83v7.88l-2.51 3 20.2-3.09-4-28.81-6.78-4.51-8.43-5.09z" fill="#f2c27c"/><path d="m571.54 362.81c.61-.94-7.59 7.79-10.13 13.44-3.26 7.26-6.86 9.83-5.7 23.77h47.93s-3.64-30.08-8.9-34.25-13.27-3.89-13.27-3.89-12.39 4.72-9.93.93z" fill="var(--colors-primary, #d64541)"/><path d="m571.77 394.07s-2 .42-3.25.56-2.27-.85-2.83.5c-.72 1.75-1.5.49-1.08-.55s1.08-1.13 1.08-1.13a1.86 1.86 0 0 0 -2 .74c-1 1.1-1.61 1.43-1.86 1.25-.63-.44.11-1.7.72-2.11a8.12 8.12 0 0 1 2.47-1s-2.42.68-3.1.84-1.38 1.36-2.05 1.28-1-1.23 1-2.37a9.1 9.1 0 0 1 3.44-1 24.4 24.4 0 0 0 -3.67.81c-1.19.47-1.51 1.11-2.22.95s0-1.78 1.61-2.17 2.24-1 1.27-.94-.87 1-1.5 1-2.16-2.12 2.41-3.1c2-.43 6.32.54 6.32.54l6.68 2.75z" fill="#f2c27c"/><path d="m589.49 365s-6.09 2.59.77 25.88l-21.87-2.77s3.51 1.22 2.31 6.19c0 0 26.55 8.74 28 4.54s2.42-42.02-9.21-33.84z" fill="var(--colors-primary, #d64541)"/><path d="m578 345.06s1.42-2.48 2.84-1.88c4.68 2-.62 6.59-2.18 7.21-2.8 1.11-5.55 8.37-5.55 17 0 9.34 2.57 12.62 4.64 16.91 2.48 5.15 11.15 8.18 18.74 4.66 8-3.75 8.18-12.64 5.86-18.69a108.64 108.64 0 0 1 -5.47-16.88c-1.45-6-2.93-9.28-3.77-13-3-13.44-8.17-16.48-19.58-16.48s-20 8.88-9.42 18.82c0 0-2.64-7.81 3.64-12.08 0 0-1 6.75 4.13 9.24s6.12 5.17 6.12 5.17z" fill="#181826"/><path d="m578.94 342.73s1.78-16.36-5.1-18.8c0 0 1.85-1 4.79.27 0 0 5 2.92 4 18.53z" fill="#6661a0"/><circle cx="579.65" cy="345.82" fill="#7781be" r="5.01"/><path d="m578.31 346.59s-5.7 8.11-13.58 7.49v.92s9.91-.08 14-7.8z" fill="#6661a0"/><path d="m564.11 353.77h4.63v1.78h-4.63z" fill="#493372" transform="matrix(.98519921 -.17141327 .17141327 .98519921 -52.42 102.38)"/><path d="m529.71 398.09h43.26v2.08h-43.26z" fill="#577571"/><rect fill="#96a9a8" height="43.41" rx="3.33" width="59.17" x="498.08" y="342.48"/><path d="m526.49 375.76a2.62 2.62 0 0 0 -5-.3s-3.64 9.22-5.49 15.54-1.44 9.18 6 9h14.83v-1.46s-5.05 1.08-7.26-9z" fill="#7c9391"/><path d="m46.72 473.12s-6.81-48.32-31.85-54.47c0 0-4.39 5.78 4.4 11.67s5.93 8.54 7.68 13.81 8.57 5.09 9.23 12.32 10.54 16.67 10.54 16.67z" fill="#7c9391"/><path d="m46.49 473.12s-5.94-48.43 16.65-60.86c0 0 5.74 4.44-1.22 12.41s-3.52 9.78-3.85 15.33-7 7.14-5.71 14.29-5.87 18.83-5.87 18.83z" fill="#7c9391"/><path d="m47.62 470.81s14.91-36.81 35.9-36.73c0 0 2.33 5.43-5.77 8.35s-6.37 5.57-8.75 9.39-7.77 2.33-9.71 7.91-11.67 11.08-11.67 11.08z" fill="#7c9391"/><path d="m58.14 492.01h-22.73l-3.29-23.39h29.97z" fill="#96a9a8"/><path d="m166 366.12s13.29 3 20.83 23.63c3 8.24 8.35 35.25 8.35 35.25s-21.7 5.17-15.67-3-13.51-55.88-13.51-55.88z" fill="var(--colors-primary, #d64541)"/><path d="m155.11 365.26s-11.54 0-19.73 14.51c-4.13 7.33-10.18 24.08-10.18 24.08s6.77 17.45 16.58-1.22c-1.59.93.08 37.19 8.51 39.49 2.05 3.14 12.76-9.91 34.29-9.91v-8.95s-4.33-31.77-7-44.14c-2.45-11.23-11.56-13-11.56-13z" fill="var(--colors-primary, #d64541)"/><path d="m153.75 358 1.76 8.14s9.9 7.62 10.47 0l-.72-8.14z" fill="#faab6c"/><path d="m149.9 353.15s4 5.15 4.5 5.6 3.2-5.46 3.2-5.46l-7-2z" fill="#383838"/><path d="m169.48 347s.87-4.22 1.79-1.82.27 6.85-1 6.12-.79-4.3-.79-4.3z" fill="#d7c7a3"/><path d="m170.71 343.83s2.91 18.25-7.47 18.41c-4.84.07-11-2-12.29-8.75 0 0-1 2.35-2.11 1.25s-5.39-8.4.92-6.63l.34-11.05 18.59-.08z" fill="#faab6c"/><path d="m147 348.37s-5.62-9.22-1.16-10.8c0 0 1.48-10.43 13.86-8.08s14.65 6.31 14.2 7.83-3.35 3.11-3.35 3.11l.45 5.57-1.8-5.14s-15.7 1.95-18.77-1l1.11 10.34s-2.54-2.69-4.54-1.83z" fill="#1e1e1e"/><path d="m155.42 362.28-4.7-.52a.42.42 0 0 1 -.38-.25l-6.17-12.32s.62-.92.92-.92h4.58a.94.94 0 0 1 .85.55l5.48 12.35c.14.27-.58 1.11-.58 1.11z" fill="#686868"/><path d="m155.09 362.44h-4.91a.43.43 0 0 1 -.38-.25l-5.63-12.65a.41.41 0 0 1 .38-.58h4.58a.92.92 0 0 1 .85.55l5.5 12.34a.42.42 0 0 1 -.39.59z" fill="#7d7d7e"/><path d="m129.68 389.3s-5.53-4.91 13.54-25.33c0 0 2.28-3 2.08-3.65s-1-2.16-.32-3.32c.43-.79-.14-1.85-.4-2.77a2.46 2.46 0 0 1 0-1.5c.11-.28.45-.71.75-.5l.57 1.28c.23.4.84 1.26 1.33 2a.79.79 0 0 0 1.33 0c1.06-1.66 3.37-3.52 4-2.75.84 1.08 3.41 4.35 2.4 6s-4.27 3.87-5.63 4.61-12.13 35.23-19.65 25.93z" fill="#faab6c"/><path d="m144.93 361.21 4 2.46s-12.73 45.13-21.64 43c-6.29-1.44-.39-31.49 17.64-45.46z" fill="var(--colors-primary, #d64541)"/><path d="m169.4 425.67s26-13.41 38.59 10.9c8.55 16.51-7 51.8-7 51.8h-6.88s5.26-27.6-2-40.7c-3.26-5.9-16.52-4-27.93-3.08a11.86 11.86 0 0 1 -12.85-11.82v-.52z" fill="#2d2d2d"/><path d="m197.37 479.63-3.26 8.74v3.77l19.88.16s.5-2.67-1.5-3.3-14-5.62-14-5.62z" fill="#2d2d2d"/><path d="m144.85 430.8s25.64-18.54 38.23 5.77c8.55 16.51-3.09 51.8-3.09 51.8h-6.88s3.3-25.6-4-38.7c-1.66-3-5.1-4.16-8.78-4.42a16.72 16.72 0 0 1 -15.53-14.45z" fill="#3a3a3a"/><path d="m176.37 479.63-3.26 8.74v3.77l19.88.16s.5-2.67-1.5-3.3-14-5.62-14-5.62z" fill="#3a3a3a"/><path d="m147.83 422-4.11 8s2.53 7.59 6.57 12.13c0 0 .49-12.85 12.84-15.79s11.53-1.76 15.2-2.3a18.9 18.9 0 0 0 6.25-2l-16.58-9.87z" fill="var(--colors-primary, #d64541)"/><path d="m184.2 420.58c-.82.32-4.24 4.19-2.52 5s1-.71 2.13-.25.77 1.3 2 2.29c2.53 2.09 8.24.1 8.62-1.77s.48-9.44-10.23-5.27z" fill="#faab6c"/><rect fill="#181e1f" height="363.67" rx="16.34" width="208.99" x="261.68" y="128.62"/><rect fill="#526c6d" height="14.93" rx="7.47" width="730.46" x="13.06" y="492.14"/><path d="m344.07 295.39h-.45.44a0 0 0 0 0 0 0z" fill="#596ab2"/><path d="m356.82 295.39h.43z" fill="#596ab2"/><path d="m326.63 325.32a.44.44 0 0 1 0 .43z" fill="#596ab2"/><rect fill="#f4f4f5" height="328.34" rx="13.66" width="187.46" x="272.45" y="138.56"/><path d="m427.16 149.23h19.92v2.71h-19.92z" fill="var(--pages-home-images-background, #ededed)"/><path d="m427.16 155.36h19.92v2.71h-19.92z" fill="var(--pages-home-images-background, #ededed)"/><path d="m427.16 161.5h19.92v2.71h-19.92z" fill="var(--pages-home-images-background, #ededed)"/><path d="m729.55 249-47.72-5.69 22.55 41.24 7.14-11.42 17.96 15.6 12.62-15.42-21.78-15.3z" fill="var(--pages-home-images-background, #ededed)"/><path d="m106.03 198.37 51 46.24-65.78 14.38 5.63-18.46-33.72-4.75 4.8-28.14 37.01 9.17z" fill="var(--pages-home-images-background, #ededed)"/><path d="m421.86 68.56s9.59-42.07 23-39.49 70.6 21.3 69.75 30.88-11 41-21.32 41.49-48.53-17.81-48.53-17.81l-18 13.14 6.84-16.42s-13.7-4.86-11.74-11.79z" fill="var(--pages-home-images-background, #ededed)"/><path d="m502.67 65.47-56.88-21.67-1.71 3.67 56.09 23.58z" fill="#f4f5f9"/><path d="m497.9 79.53-56.87-21.66-1.71 3.66 56.08 23.58z" fill="#f4f5f9"/><path d="m526 268.27a16.26 16.26 0 1 0 16.26 16.25 16.25 16.25 0 0 0 -16.26-16.25zm0 24.66a8.41 8.41 0 1 1 8.41-8.41 8.41 8.41 0 0 1 -8.41 8.41z" fill="#96a9a8"/><path d="m180.57 259.12a12.81 12.81 0 1 0 12.81 12.8 12.81 12.81 0 0 0 -12.81-12.8zm0 19.43a6.63 6.63 0 1 1 6.63-6.63 6.63 6.63 0 0 1 -6.63 6.63z" fill="#96a9a8"/><path d="m285.26 86.09a12.81 12.81 0 1 0 12.8 12.81 12.81 12.81 0 0 0 -12.8-12.81zm0 19.44a6.63 6.63 0 1 1 6.62-6.63 6.63 6.63 0 0 1 -6.62 6.63z" fill="#96a9a8"/><path d="m51.44 263.05a12.81 12.81 0 1 0 12.81 12.81 12.8 12.8 0 0 0 -12.81-12.81zm0 19.43a6.63 6.63 0 1 1 6.63-6.62 6.62 6.62 0 0 1 -6.63 6.62z" fill="var(--pages-home-images-background, #ededed)"/><path d="m573.84 79.47a12.81 12.81 0 1 0 12.81 12.81 12.8 12.8 0 0 0 -12.81-12.81zm0 19.43a6.63 6.63 0 1 1 6.63-6.62 6.62 6.62 0 0 1 -6.63 6.62z" fill="var(--pages-home-images-background, #ededed)"/><path d="m589.23 129.9a12.81 12.81 0 1 0 12.77 12.81 12.81 12.81 0 0 0 -12.77-12.81zm0 19.43a6.63 6.63 0 1 1 6.63-6.62 6.62 6.62 0 0 1 -6.63 6.62z" fill="var(--pages-home-images-background, #ededed)"/><path d="m489.13 159.65a8.81 8.81 0 1 0 8.81 8.8 8.8 8.8 0 0 0 -8.81-8.8zm0 13.36a4.56 4.56 0 1 1 4.56-4.56 4.56 4.56 0 0 1 -4.56 4.55z" fill="var(--pages-home-images-background, #ededed)"/><path d="m220 331.2 8 27.54 27.55-8.07-8.07-27.54zm27 14.8-14.32 4.19-4.2-14.32 14.33-4.19z" fill="#96a9a8"/><path d="m347.57 54 4.19 14.32 14.32-4.19-4.19-14.33zm14.07 7.7-7.45 2.18-2.19-7.47 7.45-2.18z" fill="#96a9a8"/><path d="m241.37 50 6.63 22.52 22.48-6.59-6.58-22.48zm22.09 12.08-11.69 3.42-3.42-11.69 11.65-3.38z" fill="var(--pages-home-images-background, #ededed)"/><path d="m48.39 313.36 8.07 27.54 27.54-8.07-8.06-27.54zm27.07 14.8-14.33 4.19-4.19-14.35 14.32-4.19z" fill="#96a9a8"/><path d="m323.69 138.56 41.47-3.73 43.33 3.73-1.6 6.43a7.38 7.38 0 0 1 -7.16 5.59h-67.28a7.39 7.39 0 0 1 -7.16-5.59z" fill="#181e1f"/><path d="m158.4 292.81h-58.94a3.14 3.14 0 0 0 -3.13 3.19v17a3.13 3.13 0 0 0 3.13 3.14h48.14l7.72 6.18v-6.22h3.08a3.13 3.13 0 0 0 3.14-3.14v-16.96a3.14 3.14 0 0 0 -3.14-3.19z" fill="var(--colors-primary, #d64541)"/><circle cx="108.56" cy="304.63" fill="#f4f4f5" r="3.55"/><circle cx="122.16" cy="304.63" fill="#f4f4f5" r="3.55"/><circle cx="135.73" cy="304.63" fill="#f4f4f5" r="3.55"/><circle cx="149.3" cy="304.63" fill="#f4f4f5" r="3.55"/><path d="m411.41 129.45s-4.17-.87-3.29-3.29 6.22 0 6.46 1.65-3.17 1.64-3.17 1.64z" fill="#faab6c"/><path d="m420 123.67a5.41 5.41 0 0 0 -4.48 2.35c-1.75 2.58-3.12 6.43 3.93 6.72 10.67.44 12.42-1.59 12-4.52-.39-2.73-.76-4.53-11.45-4.55z" fill="#faab6c"/><path d="m442.92 189.76h-153.51a4.15 4.15 0 0 0 -4.15 4.15v37.27a4.15 4.15 0 0 0 4.15 4.15h140.07l6.52 7.67v-7.67h6.93a4.15 4.15 0 0 0 4.15-4.15v-37.27a4.15 4.15 0 0 0 -4.16-4.15z" fill="var(--pages-home-images-background, #ededed)"/><path d="m289.41 253.7h153.51a4.15 4.15 0 0 1 4.15 4.15v37.26a4.15 4.15 0 0 1 -4.15 4.16h-140.07l-6.51 7.67v-7.67h-6.93a4.15 4.15 0 0 1 -4.15-4.16v-37.26a4.15 4.15 0 0 1 4.15-4.15z" fill="var(--pages-home-images-background, #ededed)"/><path d="m442.92 317.63h-153.51a4.15 4.15 0 0 0 -4.15 4.16v37.26a4.15 4.15 0 0 0 4.15 4.16h140.07l6.51 7.66v-7.66h6.93a4.15 4.15 0 0 0 4.15-4.16v-37.26a4.15 4.15 0 0 0 -4.15-4.16z" fill="var(--pages-home-images-background, #ededed)"/><path d="m289.41 381.57h153.51a4.15 4.15 0 0 1 4.15 4.16v37.27a4.16 4.16 0 0 1 -4.15 4.16h-140.07l-6.51 7.66v-7.66h-6.93a4.16 4.16 0 0 1 -4.15-4.16v-37.27a4.15 4.15 0 0 1 4.15-4.16z" fill="var(--pages-home-images-background, #ededed)"/></g></svg>