<svg viewBox="0 0 735.29 486.55" xmlns="http://www.w3.org/2000/svg"><g id="main"><path d="m679.82 294.93 14.07 35.3 35.3-14.06-14.07-35.3zm37.52 16.14-18.34 7.32-7.33-18.39 18.33-7.29z" fill="var(--pages-home-images-background, #ededed)"/><path d="m570.07 275.91-3 20.54 20.54 3 3-20.54zm13.35 17.87-10.68-1.55 1.55-10.68 10.71 1.55z" fill="var(--pages-home-images-background, #ededed)"/><path d="m576.18 210.2-3 20.54 20.54 3 3-20.54zm13.35 17.87-10.68-1.54 1.55-10.68 10.68 1.54z" fill="#96a9a8"/><g fill="var(--pages-home-images-background, #ededed)"><circle cx="30.31" cy="28.09" r="9.37"/><circle cx="64.68" cy="28.09" r="9.37"/><circle cx="99.06" cy="28.09" r="9.37"/><circle cx="133.43" cy="28.09" r="9.37"/><circle cx="167.81" cy="28.09" r="9.37"/><circle cx="30.31" cy="60.87" r="9.37"/><circle cx="64.68" cy="60.87" r="9.37"/><circle cx="99.06" cy="60.87" r="9.37"/><circle cx="133.43" cy="60.87" r="9.37"/><circle cx="167.81" cy="60.87" r="9.37"/><circle cx="30.31" cy="93.66" r="9.37"/><circle cx="64.68" cy="93.66" r="9.37"/><circle cx="99.06" cy="93.66" r="9.37"/><circle cx="133.43" cy="93.66" r="9.37"/><circle cx="167.81" cy="93.66" r="9.37"/><circle cx="30.31" cy="126.45" r="9.37"/><circle cx="64.68" cy="126.45" r="9.37"/><circle cx="99.06" cy="126.45" r="9.37"/><circle cx="133.43" cy="126.45" r="9.37"/><circle cx="167.81" cy="126.45" r="9.37"/><circle cx="30.31" cy="159.23" r="9.37"/><circle cx="64.68" cy="159.23" r="9.37"/><circle cx="99.06" cy="159.23" r="9.37"/><circle cx="133.43" cy="159.23" r="9.37"/><circle cx="167.81" cy="159.23" r="9.37"/><circle cx="619.74" cy="101.25" r="6.67"/><circle cx="644.21" cy="101.25" r="6.67"/><circle cx="668.68" cy="101.25" r="6.67"/><circle cx="693.16" cy="101.25" r="6.67"/><circle cx="717.63" cy="101.25" r="6.67"/><circle cx="619.74" cy="124.59" r="6.67"/><circle cx="644.21" cy="124.59" r="6.67"/><circle cx="668.68" cy="124.59" r="6.67"/><circle cx="693.16" cy="124.59" r="6.67"/><circle cx="717.63" cy="124.59" r="6.67"/><circle cx="619.74" cy="147.93" r="6.67"/><circle cx="644.21" cy="147.93" r="6.67"/><circle cx="668.68" cy="147.93" r="6.67"/><circle cx="693.16" cy="147.93" r="6.67"/><circle cx="717.63" cy="147.93" r="6.67"/><circle cx="619.74" cy="171.27" r="6.67"/><circle cx="644.21" cy="171.27" r="6.67"/><circle cx="668.68" cy="171.27" r="6.67"/><circle cx="693.16" cy="171.27" r="6.67"/><circle cx="717.63" cy="171.27" r="6.67"/><circle cx="619.74" cy="194.61" r="6.67"/><circle cx="644.21" cy="194.61" r="6.67"/><circle cx="668.68" cy="194.61" r="6.67"/><circle cx="693.16" cy="194.61" r="6.67"/><circle cx="717.63" cy="194.61" r="6.67"/><path d="m55.05 477.58s-105.11-107.78-16.66-209.44c42.24-48.55 137.61 16.16 162.61-37.32 28.25-60.45-43-145.82 37.72-185.82 182.64-90.5 125.59 92.55 224.55 104.27 60.36 7.14 128.35-24.57 171.48 21.73 41.63 44.7 6.79 108.2 55.13 151.2s35.17 44.57 33.17 89.42-27 66.71-27 66.71z"/></g><path d="m323.31 371.46a14.28 14.28 0 0 0 -14.31-14.29h-169.92a14.28 14.28 0 0 0 -14.28 14.29v33.06h-.37a13.51 13.51 0 0 0 .37-3.07 13.34 13.34 0 1 0 -17.8 12.55v58h198.52v-46.27h17.79z" fill="#96a9a8"/><path d="m32.6 313.69v159.71h65.91v-159.71zm60.12 154.16h-54.33v-46.25h54.33zm0-51.8h-54.33v-46.25h54.33zm0-51.8h-54.33v-46.25h54.33z" fill="#96a9a8"/><path d="m67.22 324.35h8.5v39.9h-8.5z" fill="#7c9391"/><path d="m56.66 324.35h6.21v39.9h-6.21z" fill="#7c9391" transform="matrix(.97503322 .22205905 -.22205905 .97503322 77.95 -4.67)"/><path d="m46.49 324.9h6.21v39.9h-6.21z" fill="#7c9391" transform="matrix(.90726434 .42056083 -.42056083 .90726434 149.63 11.12)"/><path d="m75.72 328.85h8.5v35.4h-8.5z" fill="#7c9391"/><path d="m84.22 321.6h8.5v42.65h-8.5z" fill="#7c9391"/><path d="m54.9 282.67h19.83l6.5 31.02h-20.83z" fill="#7c9391"/><path d="m59.76 293.83-10.17 19.86h6.98l6.33-17.86z" fill="#7c9391"/><path d="m587.51 399h-23.21a7 7 0 0 1 -6.93-7.65l4.63-46.85a7 7 0 0 1 6.92-6.27h23.21a7 7 0 0 1 6.93 7.64l-4.63 46.83a7 7 0 0 1 -6.92 6.3z" fill="#577571"/><path d="m463.27 379.5h175.83v6.71h-175.83z" fill="#96a9a8"/><path d="m474.91 385.34h155.56v90.54h-155.56z" fill="#96a9a8"/><path d="m485.99 392.12h4.41v79.58h-4.41z" fill="#96a9a8"/><path d="m613.11 392.12h4.41v79.58h-4.41z" fill="#96a9a8"/><path d="m592.77 264h77.56v5.2h-77.56z" fill="#96a9a8" transform="matrix(-1 0 0 -1 1263.1 533.19)"/><path d="m634.75 230.93h7.22v33.91h-7.22z" fill="#7c9391"/><path d="m625.77 230.93h5.28v33.91h-5.28z" fill="#7c9391" transform="matrix(.97503322 .22205905 -.22205905 .97503322 70.74 -133.36)"/><path d="m602.81 245.71h33.91v5.28h-33.91z" fill="#7c9391" transform="matrix(.42056083 -.90726434 .90726434 .42056083 133.8 706.19)"/><path d="m641.97 234.75h7.22v30.09h-7.22z" fill="#7c9391"/><path d="m649.19 237.96h7.22v26.87h-7.22z" fill="#7c9391"/><path d="m689.88 445.44s9.38-66.6 43.89-75.08c0 0 6.06 8-6 16.09s-8.18 11.76-10.6 19-11.8 7-12.71 17-14.58 22.99-14.58 22.99z" fill="#7c9391"/><path d="m690.19 445.44s8.19-66.76-23-83.89c0 0-7.91 6.13 1.68 17.11s4.85 13.48 5.31 21.13 9.58 9.84 7.88 19.7 8.13 25.95 8.13 25.95z" fill="#7c9391"/><path d="m688.64 442.27s-20.56-50.75-49.49-50.64c0 0-3.21 7.49 8 11.52s8.77 7.67 12.12 12.93 10.71 3.22 13.4 10.91 15.97 15.28 15.97 15.28z" fill="#7c9391"/><path d="m674.13 471.49h31.34l4.54-32.24h-41.33z" fill="#96a9a8"/><rect fill="#dfeceb" height="17.73" rx="8.86" width="17.73" x="358.78" y="295.23"/><path d="m306.23 19.47-3.15-2.34s-12.4-13.52-3.55-16.57 10.36 7.32 10.36 7.32-.3-6.1 2.44-4.27-1.22 11.59-1.22 11.59z" fill="#faab6c"/><path d="m357.09 75.39s-8 2.11-13.34 26.72-9.2 47.83-4.07 51l-6.68 12.34s38.56 10.13 61.29 1.07l.12-7.11s6.05-14.74 1-56.31c0 0-.75-26.75-14.48-26.89s-23.84-.82-23.84-.82z" fill="var(--colors-primary, #d64541)"/><path d="m381.93 76.27s24.23 0 30.75 46c1 7.29-1.82 19.89-7 23.89-10.68 8.19-24.5 11.35-35 10.35z" fill="var(--colors-primary, #d64541)"/><path d="m375.37 133.61s-17 3.92-19.42 7.23l-5.44 1.74 1.82 6.13 4.78.08s12.05 4.63 30.85 4.27-12.59-19.45-12.59-19.45z" fill="#4cc1f0"/><path d="m357.41 81-.32-5.58s-31-5.75-46-60.19l-8 1.93s12.18 73.84 40.15 87.33l2.13 9z" fill="var(--colors-primary, #d64541)"/><path d="m370.22 69.25s-7-1-7-16.21l11.46-11.13 6.17 5.74z" fill="#1e1e1e"/><path d="m391.55 49.89s-.16 21.22-9.25 22.44-14.26-4.82-14-8.54c0 0-8.71-4.27-.28-6.51l.24-8.76 13.66-7.78z" fill="#faab6c"/><path d="m363.18 53s-1-17.22 12.24-17.26c9.21 0 16.12 1.92 16.13 14.83 0 .04-11.97-3.51-28.37 2.43z" fill="var(--colors-primary, #d64541)"/><path d="m371 63.44-2.66.35.3 11.62-3.27.55s8 10.28 14.69 6.64 2.37-6 2.37-6l-.13-5.28z" fill="#faab6c"/><path d="m367.84 51.55s17.1 4 21.63 3.29 3.71-1.8 8.45.07c0 0 1.54-1-6.37-4.3s-17.61-3.7-23.71.94z" fill="var(--colors-primary, #d64541)"/><path d="m529.28 351.14-.17-2.79a7.48 7.48 0 0 0 -6.39-3.39c-4.33.11-8.31-.43-7.23.31a5.58 5.58 0 0 0 1.9.88s-11.9-.43-8.89 1.85 13.5 4.52 13.5 4.52z" fill="#f2c27c"/><path d="m563.94 340.48s-14.42-2.83-22.61 26.87l-12.22-19-7.11 4.17s11.62 23.73 19.19 26 17.45-22.7 17.45-22.7z" fill="var(--colors-primary, #d64541)"/><path d="m594.27 305.55h58.94a3.14 3.14 0 0 1 3.14 3.14v17a3.14 3.14 0 0 1 -3.14 3.14h-48.14l-7.72 6.17v-6.18h-3.08a3.13 3.13 0 0 1 -3.14-3.14v-17a3.13 3.13 0 0 1 3.14-3.13z" fill="var(--colors-primary, #d64541)"/><circle cx="644.11" cy="317.37" fill="#f4f4f5" r="3.55"/><circle cx="630.51" cy="317.37" fill="#f4f4f5" r="3.55"/><circle cx="616.94" cy="317.37" fill="#f4f4f5" r="3.55"/><circle cx="603.37" cy="317.37" fill="#f4f4f5" r="3.55"/><path d="m549.06 310.8 2 10.78s-.33 14.3 7.44 12.83v7.88l-2.51 3 20.2-3.1-4-28.8-6.78-4.51-8.43-5.1z" fill="#f2c27c"/><path d="m558.48 342.29c.61-.94-7.59 7.78-10.13 13.44-3.26 7.26-6.85 9.83-5.7 23.77h47.93s-3.64-30.08-8.89-34.25-13.28-3.89-13.28-3.89-12.41 4.72-9.93.93z" fill="var(--colors-primary, #d64541)"/><path d="m558.72 373.55s-2 .41-3.26.56-2.27-.86-2.82.49c-.72 1.76-1.5.5-1.08-.55s1.07-1.13 1.07-1.13a1.87 1.87 0 0 0 -2 .75c-1 1.1-1.6 1.43-1.86 1.25-.62-.45.11-1.71.72-2.11a8.23 8.23 0 0 1 2.47-1s-2.42.68-3.1.84-1.38 1.35-2 1.27-1-1.23 1-2.37a9.25 9.25 0 0 1 3.44-.95 24.4 24.4 0 0 0 -3.67.81c-1.19.46-1.5 1.11-2.21.95s0-1.78 1.61-2.17 2.23-1.05 1.26-.95-.87 1-1.5 1-2.15-2.12 2.41-3.1c2-.43 6.32.54 6.32.54l6.69 2.75z" fill="#f2c27c"/><path d="m576.44 344.52s-6.1 2.59.76 25.87l-21.86-2.76s3.5 1.22 2.3 6.18c0 0 26.56 8.75 28 4.55s2.42-42.07-9.2-33.84z" fill="var(--colors-primary, #d64541)"/><path d="m564.93 324.54s1.42-2.48 2.84-1.89c4.68 2-.62 6.59-2.18 7.21-2.8 1.12-5.55 8.38-5.55 17.05 0 9.33 2.57 12.61 4.64 16.91 2.48 5.14 11.15 8.18 18.74 4.65 8.05-3.74 8.18-12.64 5.86-18.69a109.56 109.56 0 0 1 -5.46-16.87c-1.46-6-2.94-9.28-3.78-13-3-13.44-8.16-16.48-19.57-16.48s-20 8.88-9.43 18.83c0 0-2.64-7.82 3.64-12.08 0 0-1 6.75 4.14 9.24s6.11 5.12 6.11 5.12z" fill="#181826"/><path d="m565.88 322.2s1.78-16.36-5.09-18.8c0 0 1.85-1 4.78.28 0 0 5 2.92 4 18.52z" fill="#6661a0"/><circle cx="566.59" cy="325.3" fill="#7781be" r="5.01"/><path d="m565.26 326.07s-5.71 8.11-13.59 7.49v.92s9.92-.07 14-7.8z" fill="#6661a0"/><path d="m551.05 333.25h4.63v1.78h-4.63z" fill="#493372" transform="matrix(.98519921 -.17141327 .17141327 .98519921 -49.1 99.83)"/><path d="m516.65 377.57h43.26v2.08h-43.26z" fill="#577571"/><rect fill="#96a9a8" height="43.41" rx="3.33" width="59.17" x="485.02" y="321.96"/><path d="m513.43 355.23a2.61 2.61 0 0 0 -5-.29s-3.62 9.22-5.48 15.5-1.43 9.19 6 9.05h14.85v-1.49s-5 1.08-7.26-9z" fill="#7c9391"/><path d="m33.66 452.59s-6.8-48.31-31.84-54.46c0 0-4.39 5.77 4.39 11.67s5.93 8.53 7.69 13.8 8.56 5.1 9.22 12.33 10.54 16.66 10.54 16.66z" fill="#7c9391"/><path d="m33.44 452.59s-5.95-48.43 16.64-60.85c0 0 5.74 4.44-1.22 12.41s-3.51 9.78-3.84 15.32-7 7.14-5.72 14.29-5.86 18.83-5.86 18.83z" fill="#7c9391"/><path d="m34.56 450.29s14.92-36.82 35.9-36.73c0 0 2.33 5.43-5.77 8.35s-6.37 5.57-8.79 9.39-7.78 2.33-9.72 7.91-11.62 11.08-11.62 11.08z" fill="#7c9391"/><path d="m45.09 471.49h-22.74l-3.29-23.39h29.98z" fill="#96a9a8"/><path d="m152.92 345.6s13.29 3 20.83 23.63c3 8.24 8.35 35.25 8.35 35.25s-21.7 5.16-15.66-3-13.52-55.88-13.52-55.88z" fill="var(--colors-primary, #d64541)"/><path d="m142.05 344.74s-11.53 0-19.72 14.51c-4.13 7.32-10.18 24.08-10.18 24.08s6.76 17.45 16.57-1.22c-1.59.93.08 37.19 8.51 39.49 2.05 3.14 12.76-9.91 34.3-9.91v-9s-4.34-31.76-7-44.13c-2.45-11.23-11.57-13-11.57-13z" fill="var(--colors-primary, #d64541)"/><path d="m140.69 337.45 1.77 8.15s9.89 7.61 10.46 0l-.71-8.15z" fill="#faab6c"/><path d="m136.84 332.63s4 5.14 4.5 5.59 3.21-5.45 3.21-5.45l-7-2z" fill="#383838"/><path d="m156.42 326.5s.87-4.22 1.79-1.82.28 6.85-1 6.12-.79-4.3-.79-4.3z" fill="#d7c7a3"/><path d="m157.66 323.31s2.9 18.25-7.48 18.41c-4.84.07-11-2-12.29-8.75 0 0-1 2.35-2.11 1.25s-5.39-8.4.92-6.63l.35-11 18.58-.09z" fill="#faab6c"/><path d="m133.93 327.84s-5.62-9.21-1.15-10.79c0 0 1.47-10.43 13.86-8.09s14.65 6.32 14.2 7.84-3.35 3.11-3.35 3.11l.42 5.56-1.79-5.14s-15.7 1.95-18.78-1l1.11 10.34s-2.51-2.67-4.52-1.83z" fill="#1e1e1e"/><path d="m142.37 341.75-4.71-.52a.43.43 0 0 1 -.38-.25l-6.16-12.31s.61-.92.91-.92h4.58a.92.92 0 0 1 .85.55l5.5 12.34c.12.28-.59 1.11-.59 1.11z" fill="#686868"/><path d="m142 341.92h-4.92a.43.43 0 0 1 -.38-.25l-5.59-12.67a.42.42 0 0 1 .38-.59h4.59a.93.93 0 0 1 .84.55l5.5 12.35a.42.42 0 0 1 -.42.61z" fill="#7d7d7e"/><path d="m116.62 368.78s-5.52-4.92 13.54-25.33c0 0 2.29-3 2.08-3.65s-1-2.16-.32-3.32c.43-.79-.13-1.85-.4-2.78a2.37 2.37 0 0 1 0-1.5c.11-.27.44-.7.75-.5l.57 1.28c.23.4.84 1.26 1.32 2a.79.79 0 0 0 1.33 0c1.07-1.67 3.37-3.53 4-2.75.83 1.08 3.4 4.35 2.39 6s-4.26 3.86-5.63 4.61-12.11 35.24-19.63 25.94z" fill="#faab6c"/><path d="m131.87 340.69 4 2.46s-12.72 45.12-21.63 43c-6.24-1.44-.39-31.49 17.63-45.46z" fill="var(--colors-primary, #d64541)"/><path d="m156.35 405.14s26-13.4 38.59 10.91c8.54 16.5-7 51.8-7 51.8h-6.88s5.25-27.6-2-40.71c-3.27-5.9-16.52-4-27.93-3.08a11.87 11.87 0 0 1 -12.86-11.81v-.52z" fill="#2d2d2d"/><path d="m184.31 459.1-3.25 8.75v3.77l19.88.15s.5-2.67-1.5-3.29-14-5.63-14-5.63z" fill="#2d2d2d"/><path d="m131.79 410.27s25.65-18.53 38.24 5.78c8.54 16.5-3.09 51.8-3.09 51.8h-6.88s3.29-25.6-4-38.71c-1.66-3-5.1-4.16-8.78-4.41a16.75 16.75 0 0 1 -15.53-14.46z" fill="#3a3a3a"/><path d="m163.31 459.1-3.25 8.75v3.77l19.88.15s.5-2.67-1.5-3.29-14-5.63-14-5.63z" fill="#3a3a3a"/><path d="m134.77 401.45-4.1 8s2.52 7.59 6.56 12.14c0 0 .49-12.85 12.85-15.79s11.52-1.76 15.19-2.3a18.78 18.78 0 0 0 6.26-2.06l-16.59-9.81z" fill="var(--colors-primary, #d64541)"/><path d="m171.15 400.06c-.83.32-4.24 4.19-2.53 5s1-.72 2.13-.25.78 1.29 2 2.29c2.54 2.09 8.24.1 8.62-1.77s.49-9.44-10.22-5.27z" fill="#faab6c"/><rect fill="#181e1f" height="363.67" rx="16.34" width="208.99" x="248.63" y="108.1"/><rect fill="#526c6d" height="14.93" rx="7.47" width="730.46" y="471.62"/><path d="m331 274.87h-.44z" fill="#596ab2"/><path d="m343.77 274.87h.44z" fill="#596ab2"/><path d="m313.57 304.79a.39.39 0 0 1 0 .43z" fill="#596ab2"/><rect fill="#f4f4f5" height="328.34" rx="13.66" width="187.46" x="259.39" y="118.03"/><path d="m414.1 128.7h19.92v2.71h-19.92z" fill="var(--pages-home-images-background, #ededed)"/><path d="m414.1 134.84h19.92v2.71h-19.92z" fill="var(--pages-home-images-background, #ededed)"/><path d="m414.1 140.98h19.92v2.71h-19.92z" fill="var(--pages-home-images-background, #ededed)"/><path d="m716.49 228.48-47.72-5.7 22.55 41.25 7.15-11.42 17.95 15.59 12.63-15.42-21.79-15.3z" fill="var(--pages-home-images-background, #ededed)"/><path d="m92.98 177.85 50.99 46.24-65.77 14.38 5.63-18.46-33.73-4.76 4.81-28.13 37 9.17z" fill="var(--pages-home-images-background, #ededed)"/><path d="m408.81 48s9.58-42.08 23-39.49 70.61 21.29 69.75 30.87-11 41-21.32 41.49-48.53-17.8-48.53-17.8l-18 13.13 6.84-16.41s-13.7-4.79-11.74-11.79z" fill="var(--pages-home-images-background, #ededed)"/><path d="m489.61 44.95-56.87-21.67-1.71 3.67 56.08 23.57z" fill="#f4f5f9"/><path d="m484.84 59.01-56.87-21.67-1.71 3.67 56.09 23.57z" fill="#f4f5f9"/><path d="m512.91 247.74a16.26 16.26 0 1 0 16.25 16.26 16.26 16.26 0 0 0 -16.25-16.26zm0 24.67a8.41 8.41 0 1 1 8.41-8.41 8.41 8.41 0 0 1 -8.41 8.41z" fill="#96a9a8"/><path d="m167.51 238.59a12.81 12.81 0 1 0 12.81 12.81 12.81 12.81 0 0 0 -12.81-12.81zm0 19.44a6.63 6.63 0 1 1 6.63-6.63 6.62 6.62 0 0 1 -6.63 6.6z" fill="#96a9a8"/><path d="m272.2 65.57a12.81 12.81 0 1 0 12.8 12.81 12.81 12.81 0 0 0 -12.8-12.81zm0 19.43a6.63 6.63 0 1 1 6.63-6.62 6.62 6.62 0 0 1 -6.63 6.62z" fill="#96a9a8"/><path d="m38.39 242.52a12.81 12.81 0 1 0 12.8 12.81 12.81 12.81 0 0 0 -12.8-12.81zm0 19.44a6.63 6.63 0 1 1 6.61-6.63 6.63 6.63 0 0 1 -6.61 6.67z" fill="var(--pages-home-images-background, #ededed)"/><path d="m560.79 58.94a12.81 12.81 0 1 0 12.8 12.81 12.81 12.81 0 0 0 -12.8-12.81zm0 19.44a6.63 6.63 0 1 1 6.62-6.63 6.63 6.63 0 0 1 -6.62 6.63z" fill="var(--pages-home-images-background, #ededed)"/><path d="m576.17 109.38a12.81 12.81 0 1 0 12.83 12.8 12.8 12.8 0 0 0 -12.83-12.8zm0 19.43a6.63 6.63 0 1 1 6.63-6.63 6.62 6.62 0 0 1 -6.63 6.63z" fill="var(--pages-home-images-background, #ededed)"/><path d="m476.08 139.13a8.81 8.81 0 1 0 8.8 8.8 8.8 8.8 0 0 0 -8.8-8.8zm0 13.36a4.56 4.56 0 1 1 4.55-4.56 4.56 4.56 0 0 1 -4.55 4.56z" fill="var(--pages-home-images-background, #ededed)"/><path d="m206.89 310.67 8.11 27.55 27.54-8.07-8.06-27.54zm27.11 14.81-14.33 4.19-4.19-14.32 14.32-4.2z" fill="#96a9a8"/><path d="m334.51 33.45 4.19 14.33 14.3-4.2-4.2-14.32zm14.07 7.7-7.45 2.18-2.13-7.45 7.45-2.18z" fill="#96a9a8"/><path d="m228.32 29.51 6.58 22.49 22.48-6.58-6.58-22.49zm22.09 12.09-11.69 3.4-3.43-11.69 11.71-3.41z" fill="var(--pages-home-images-background, #ededed)"/><path d="m35.34 292.83 8.06 27.55 27.6-8.07-8.07-27.54zm27.06 14.81-14.32 4.19-4.2-14.32 14.33-4.2z" fill="#96a9a8"/><path d="m310.63 118 41.47-3.72 43.34 3.72-1.61 6.43a7.38 7.38 0 0 1 -7.16 5.6h-67.27a7.38 7.38 0 0 1 -7.16-5.6z" fill="#181e1f"/><path d="m145.35 272.29h-58.94a3.13 3.13 0 0 0 -3.14 3.13v17a3.14 3.14 0 0 0 3.14 3.14h48.14l7.71 6.18v-6.18h3.09a3.14 3.14 0 0 0 3.13-3.14v-17a3.13 3.13 0 0 0 -3.13-3.13z" fill="var(--colors-primary, #d64541)"/><circle cx="95.51" cy="284.11" fill="#f4f4f5" r="3.55"/><circle cx="109.1" cy="284.11" fill="#f4f4f5" r="3.55"/><circle cx="122.67" cy="284.11" fill="#f4f4f5" r="3.55"/><circle cx="136.25" cy="284.11" fill="#f4f4f5" r="3.55"/><path d="m398.35 108.93s-4.16-.88-3.29-3.29 6.23 0 6.46 1.65-3.17 1.64-3.17 1.64z" fill="#faab6c"/><path d="m407 103.15a5.42 5.42 0 0 0 -4.49 2.35c-1.74 2.58-3.11 6.43 3.93 6.72 10.67.44 12.42-1.59 12-4.52-.44-2.7-.81-4.53-11.44-4.55z" fill="#faab6c"/><path d="m429.86 169.23h-153.5a4.16 4.16 0 0 0 -4.16 4.16v37.26a4.16 4.16 0 0 0 4.16 4.16h140.06l6.52 7.67v-7.67h6.92a4.16 4.16 0 0 0 4.16-4.16v-37.26a4.16 4.16 0 0 0 -4.16-4.16z" fill="var(--pages-home-images-background, #ededed)"/><path d="m276.36 233.17h153.5a4.16 4.16 0 0 1 4.16 4.16v37.26a4.16 4.16 0 0 1 -4.16 4.16h-140.06l-6.52 7.66v-7.66h-6.92a4.16 4.16 0 0 1 -4.16-4.16v-37.26a4.16 4.16 0 0 1 4.16-4.16z" fill="var(--pages-home-images-background, #ededed)"/><path d="m429.86 297.11h-153.5a4.16 4.16 0 0 0 -4.16 4.16v37.26a4.15 4.15 0 0 0 4.16 4.15h140.06l6.52 7.67v-7.67h6.92a4.15 4.15 0 0 0 4.16-4.15v-37.26a4.16 4.16 0 0 0 -4.16-4.16z" fill="var(--pages-home-images-background, #ededed)"/><path d="m276.36 361.05h153.5a4.15 4.15 0 0 1 4.14 4.15v37.27a4.15 4.15 0 0 1 -4.16 4.15h-140.04l-6.52 7.67v-7.67h-6.92a4.15 4.15 0 0 1 -4.16-4.15v-37.27a4.15 4.15 0 0 1 4.16-4.15z" fill="var(--pages-home-images-background, #ededed)"/></g></svg>