<svg viewBox="0 0 776 524" xmlns="http://www.w3.org/2000/svg"><g id="main"><g fill="var(--pages-home-images-background, #ededed)"><path d="m178.28 296.43 3 20.54-20.54 3-3-20.54zm-13.36 17.87 10.68-1.54-1.54-10.68-10.68 1.54z"/><circle cx="748.03" cy="28.61" r="9.37"/><circle cx="713.66" cy="28.61" r="9.37"/><circle cx="679.28" cy="28.61" r="9.37"/><circle cx="644.91" cy="28.61" r="9.37"/><circle cx="610.54" cy="28.61" r="9.37"/><circle cx="748.03" cy="61.4" r="9.37"/><circle cx="713.66" cy="61.4" r="9.37"/><circle cx="679.28" cy="61.4" r="9.37"/><circle cx="644.91" cy="61.4" r="9.37"/><circle cx="610.54" cy="61.4" r="9.37"/><circle cx="748.03" cy="94.18" r="9.37"/><circle cx="713.66" cy="94.18" r="9.37"/><circle cx="679.28" cy="94.18" r="9.37"/><circle cx="644.91" cy="94.18" r="9.37"/><circle cx="610.54" cy="94.18" r="9.37"/><circle cx="748.03" cy="126.97" r="9.37"/><circle cx="713.66" cy="126.97" r="9.37"/><circle cx="679.28" cy="126.97" r="9.37"/><circle cx="644.91" cy="126.97" r="9.37"/><circle cx="610.54" cy="126.97" r="9.37"/><circle cx="748.03" cy="159.76" r="9.37"/><circle cx="713.66" cy="159.76" r="9.37"/><circle cx="679.28" cy="159.76" r="9.37"/><circle cx="644.91" cy="159.76" r="9.37"/><circle cx="610.54" cy="159.76" r="9.37"/><circle cx="223.51" cy="48.45" r="6.67"/><circle cx="199.04" cy="48.45" r="6.67"/><circle cx="174.57" cy="48.45" r="6.67"/><circle cx="150.1" cy="48.45" r="6.67"/><circle cx="125.63" cy="48.45" r="6.67"/><circle cx="223.51" cy="71.79" r="6.67"/><circle cx="199.04" cy="71.79" r="6.67"/><circle cx="174.57" cy="71.79" r="6.67"/><circle cx="150.1" cy="71.79" r="6.67"/><circle cx="125.63" cy="71.79" r="6.67"/><circle cx="223.51" cy="95.13" r="6.67"/><circle cx="199.04" cy="95.13" r="6.67"/><circle cx="174.57" cy="95.13" r="6.67"/><circle cx="150.1" cy="95.13" r="6.67"/><circle cx="125.63" cy="95.13" r="6.67"/><circle cx="223.51" cy="118.47" r="6.67"/><circle cx="199.04" cy="118.47" r="6.67"/><circle cx="174.57" cy="118.47" r="6.67"/><circle cx="150.1" cy="118.47" r="6.67"/><circle cx="125.63" cy="118.47" r="6.67"/><circle cx="223.51" cy="141.81" r="6.67"/><circle cx="199.04" cy="141.81" r="6.67"/><circle cx="174.57" cy="141.81" r="6.67"/><circle cx="150.1" cy="141.81" r="6.67"/><circle cx="125.63" cy="141.81" r="6.67"/><path d="m693.29 498.11s136.1-164.71 29.47-247.11c-82.85-64-128.29 30.51-171.7-71.29-23.88-56-113.2-163.85-295.1-123.16-59.32 13.27-28 115.71-39.67 139.8-26.62 55-85 37.3-133.3 80.3s-59.7 110.64-57.7 155.49 27 66.71 27 66.71z"/></g><path d="m161.53 332.08v159.71h-65.91v-159.71zm-60.12 154.16h54.33v-46.24h-54.33zm0-51.79h54.33v-46.25h-54.33zm0-51.8h54.33v-46.25h-54.33z" fill="#96a9a8"/><path d="m118.41 342.75h8.5v39.9h-8.5z" fill="#7c9391" transform="matrix(-1 0 0 -1 245.32 725.4)"/><path d="m131.26 342.75h6.21v39.9h-6.21z" fill="#7c9391" transform="matrix(-.97503322 .22205905 -.22205905 -.97503322 345.93 686.5)"/><path d="m141.43 343.29h6.21v39.9h-6.21z" fill="#7c9391" transform="matrix(-.90726434 .42056083 -.42056083 -.90726434 428.43 632.01)"/><path d="m109.91 347.25h8.5v35.4h-8.5z" fill="#7c9391" transform="matrix(-1 0 0 -1 228.32 729.9)"/><path d="m101.41 340h8.5v42.65h-8.5z" fill="#7c9391" transform="matrix(-1 0 0 -1 211.32 722.65)"/><path d="m557.61 302.68h77.56v5.2h-77.56z" fill="#96a9a8"/><path d="m585.97 269.61h7.22v33.91h-7.22z" fill="#7c9391" transform="matrix(-1 0 0 -1 1179.16 573.13)"/><path d="m596.89 269.61h5.28v33.91h-5.28z" fill="#7c9391" transform="matrix(-.98 .22 -.22 -.98 1247.72 432.83)"/><path d="m605.53 270.07h5.28v33.91h-5.28z" fill="#7c9391" transform="matrix(.90726434 -.42056083 .42056083 .90726434 -64.31 282.39)"/><path d="m578.74 273.43h7.22v30.09h-7.22z" fill="#7c9391" transform="matrix(-1 0 0 -1 1164.71 576.95)"/><path d="m571.52 276.65h7.22v26.87h-7.22z" fill="#7c9391" transform="matrix(-1 0 0 -1 1150.26 580.17)"/><path d="m50.05 471.87s-7.26-51.52-33.95-58.08c0 0-4.68 6.16 4.68 12.45s6.33 9.1 8.2 14.72 9.13 5.43 9.83 13.13 11.24 17.78 11.24 17.78z" fill="#7c9391"/><path d="m49.81 471.87s-6.34-51.64 17.75-64.87c0 0 6.12 4.73-1.3 13.23s-3.75 10.43-4.1 16.34-7.42 7.62-6.1 15.24-6.25 20.06-6.25 20.06z" fill="#7c9391"/><path d="m51 469.41s15.9-39.25 38.28-39.16c0 0 2.48 5.79-6.16 8.9s-6.78 5.94-9.37 10-8.29 2.49-10.36 8.43-12.39 11.83-12.39 11.83z" fill="#7c9391"/><path d="m62.23 492.01h-24.24l-3.51-24.93h31.96z" fill="#96a9a8"/><rect fill="#526c6d" height="14.93" rx="7.47" transform="matrix(-1 0 0 -1 766.22 999.21)" width="730.46" x="17.88" y="492.14"/><path d="m417.33 295.39h.44z" fill="#596ab2"/><path d="m404.57 295.39h-.44s0 0 0 0z" fill="#596ab2"/><path d="m434.77 325.32a.42.42 0 0 0 0 .43z" fill="#596ab2"/><path d="m103.39 163.38 51 46.23-65.78 14.38 5.64-18.46-33.73-4.75 4.8-28.13 37.01 9.16z" fill="var(--pages-home-images-background, #ededed)"/><path d="m242.68 121a16.26 16.26 0 1 1 -16.26 16.25 16.25 16.25 0 0 1 16.26-16.25zm0 24.66a8.41 8.41 0 1 0 -8.41-8.41 8.41 8.41 0 0 0 8.41 8.4z" fill="#96a9a8"/><path d="m678.78 352.4a12.81 12.81 0 1 1 -12.78 12.8 12.8 12.8 0 0 1 12.78-12.8zm0 19.43a6.63 6.63 0 1 0 -6.62-6.63 6.63 6.63 0 0 0 6.62 6.63z" fill="#96a9a8"/><path d="m65.19 346.72a12.81 12.81 0 1 1 -12.81 12.8 12.8 12.8 0 0 1 12.81-12.8zm0 19.43a6.63 6.63 0 1 0 -6.63-6.63 6.62 6.62 0 0 0 6.63 6.63z" fill="#96a9a8"/><path d="m710 263.05a12.81 12.81 0 1 1 -12.81 12.81 12.8 12.8 0 0 1 12.81-12.81zm0 19.43a6.63 6.63 0 1 0 -6.63-6.62 6.62 6.62 0 0 0 6.63 6.62z" fill="var(--pages-home-images-background, #ededed)"/><path d="m510.49 98a6.41 6.41 0 1 1 -6.4 6.41 6.4 6.4 0 0 1 6.4-6.41zm0 9.72a3.31 3.31 0 1 0 -3.31-3.31 3.31 3.31 0 0 0 3.31 3.29z" fill="var(--pages-home-images-background, #ededed)"/><path d="m589.58 208.46a6.41 6.41 0 1 1 -6.41 6.41 6.4 6.4 0 0 1 6.41-6.41zm0 9.72a3.32 3.32 0 1 0 -3.31-3.31 3.31 3.31 0 0 0 3.31 3.31z" fill="var(--pages-home-images-background, #ededed)"/><path d="m95.62 74.21a16.25 16.25 0 1 1 -16.25 16.25 16.26 16.26 0 0 1 16.25-16.25zm0 24.66a8.41 8.41 0 1 0 -8.41-8.41 8.42 8.42 0 0 0 8.41 8.41z" fill="var(--pages-home-images-background, #ededed)"/><path d="m114.16 222.65a12.81 12.81 0 1 1 -12.81 12.81 12.82 12.82 0 0 1 12.81-12.81zm0 19.44a6.63 6.63 0 1 0 -6.63-6.63 6.63 6.63 0 0 0 6.63 6.63z" fill="var(--pages-home-images-background, #ededed)"/><path d="m47.36 315.42a9.72 9.72 0 1 1 -9.72 9.72 9.72 9.72 0 0 1 9.72-9.72zm0 14.75a5 5 0 1 0 -5-5 5 5 0 0 0 5 5z" fill="var(--pages-home-images-background, #ededed)"/><path d="m750.15 457.37a8.81 8.81 0 1 1 -8.8 8.8 8.8 8.8 0 0 1 8.8-8.8zm0 13.36a4.56 4.56 0 1 0 -4.55-4.56 4.56 4.56 0 0 0 4.55 4.56z" fill="var(--pages-home-images-background, #ededed)"/><path d="m419.26 141.39-8.07 27.54-27.54-8.07 8.06-27.54zm-27.07 14.8 14.33 4.19 4.19-14.32-14.32-4.19z" fill="#96a9a8"/><path d="m113.29 289.63-4.2 14.37-14.32-4.2 4.23-14.36zm-14.08 7.7 7.45 2.18 2.18-7.44-7.45-2.19z" fill="#96a9a8"/><path d="m473 50.19-6.59 22.48-22.48-6.58 6.58-22.49zm-22.1 12.08 11.7 3.42 3.4-11.69-11.69-3.42z" fill="var(--pages-home-images-background, #ededed)"/><path d="m625.07 192.38-6.59 22.49-22.48-6.59 6.59-22.48zm-22.07 12.09 11.69 3.42 3.42-11.69-11.69-3.42z" fill="var(--pages-home-images-background, #ededed)"/><path d="m327.51 88.2 4 15.48-15.47 4-4-15.47zm-8.71 14.8 8-2.08-2.08-8.05-8.01 2.13z" fill="#96a9a8"/><path d="m52.38 59.45q1.84-18.33 22.34-22.33c-12.24-3-19.78-10.36-22.34-22.34-2.19 11.65-9.07 19.55-22.33 22.34 15.43.88 22.38 8.73 22.33 22.33z" fill="#96a9a8"/><path d="m51 146.42q1.13-11.19 13.63-13.63c-7.46-1.79-12.05-6.32-13.63-13.63-1.33 7.11-5.53 11.93-13.63 13.63 9.43.54 13.63 5.33 13.63 13.63z" fill="#96a9a8"/><path d="m583.05 230 3 20.54-20.54 3-3-20.54zm-13.35 17.86 10.68-1.55-1.55-10.68-10.68 1.54z" fill="#96a9a8"/><path d="m665.87 409a13.52 13.52 0 0 0 -13 9 12.42 12.42 0 0 0 -.43 7.4h-.37v-33.05a14.29 14.29 0 0 0 -14.29-14.29h-183.23a14.29 14.29 0 0 0 -14.29 14.29v33.06h-.36a12.57 12.57 0 0 0 -.39-7.31 13.3 13.3 0 1 0 -17 16.79v50.11a7.86 7.86 0 0 0 7.86 7.86h231.69a7.86 7.86 0 0 0 7.86-7.86v-50.11a13.33 13.33 0 0 0 -4-25.88z" fill="#96a9a8"/><path d="m176.56 172.71h393.17v271.8h-393.17z" fill="#f4f5f9"/><path d="m339.33 282h-.43z" fill="#b6bac6"/><path d="m351.84 282h.43z" fill="#b6bac6"/><path d="m322.23 311.92a.44.44 0 0 1 0 .43z" fill="#b6bac6"/><path d="m176.56 172.71h393.17v22h-393.17z" fill="#212828"/><circle cx="188.08" cy="184.83" fill="var(--colors-primary, #d64541)" r="5.13"/><circle cx="204.74" cy="184.83" fill="var(--colors-primary, #d64541)" r="5.13"/><path d="m338.9 262.51h102.04v65.99h-102.04z" fill="#dde0e8"/><circle cx="221.41" cy="184.83" fill="var(--colors-primary, #d64541)" r="5.13"/><path d="m341.39 340.51h60.07v48.19h-60.07z" fill="#dde0e8"/><path d="m413.9 340.51h60.07v48.19h-60.07z" fill="#dde0e8"/><path d="m486.86 340.51h60.07v48.19h-60.07z" fill="#dde0e8"/><rect fill="var(--colors-primary, #d64541)" height="7" rx="3.5" width="29.03" x="363.52" y="374.71"/><rect fill="var(--colors-primary, #d64541)" height="7" rx="3.5" width="29.03" x="435.52" y="374.71"/><rect fill="var(--colors-primary, #d64541)" height="7" rx="3.5" width="29.03" x="506.19" y="374.71"/><path d="m202.62 220.27h238.31v26.56h-238.31z" fill="#dde0e8"/><path d="m341.39 396.31h60.07v48.19h-60.07z" fill="#dde0e8"/><path d="m413.9 396.31h60.07v48.19h-60.07z" fill="#dde0e8"/><path d="m486.86 396.31h60.07v48.19h-60.07z" fill="#dde0e8"/><rect fill="var(--colors-primary, #d64541)" height="7" rx="3.5" width="29.03" x="363.52" y="430.51"/><rect fill="var(--colors-primary, #d64541)" height="7" rx="3.5" width="29.03" x="435.52" y="430.51"/><rect fill="var(--colors-primary, #d64541)" height="7" rx="3.5" width="29.03" x="506.19" y="430.51"/><path d="m202.62 262.51h112.32v181.99h-112.32z" fill="#dde0e8"/><circle cx="530.17" cy="233.55" fill="#dde0e8" r="13.28"/><rect fill="#dde0e8" height="9.5" rx="4.75" width="45" x="465.45" y="230.71"/><path d="m454.08 263.18h89.38v7.03h-89.38z" fill="#dde0e8"/><path d="m454.08 280.46h89.38v7.03h-89.38z" fill="#dde0e8"/><path d="m454.08 297.74h89.38v7.03h-89.38z" fill="#dde0e8"/><path d="m454.08 315.02h66.63v7.03h-66.63z" fill="#dde0e8"/><path d="m671.78 435.75h65.25v4.25h-65.25z" fill="#96a9a8"/><path d="m650.6 464h54.93a1.21 1.21 0 0 1 1.21 1.21 1.21 1.21 0 0 1 -1.21 1.21h-54.93a0 0 0 0 1 0 0v-2.42a0 0 0 0 1 0 0z" fill="#96a9a8" transform="matrix(-.13208339 .99123861 -.99123861 -.13208339 1229.51 -146.01)"/><path d="m702.05 464h54.95a1.21 1.21 0 0 1 1.21 1.21 1.21 1.21 0 0 1 -1.21 1.21h-54.95a0 0 0 0 1 0 0v-2.42a0 0 0 0 1 0 0z" fill="#96a9a8" transform="matrix(.13208339 .99123861 -.99123861 .13208339 1094.77 -319.98)"/><path d="m729.48 420.15h-28.57l3-24.82h22.57z" fill="#7c9391"/><path d="m721.89 419.27v-.1a6.69 6.69 0 0 0 -6.6-6.57 6.61 6.61 0 0 0 -6.79 6.52v.36a9.77 9.77 0 0 1 -1.33 5.31 8.6 8.6 0 0 0 -1.06 3.93 8.86 8.86 0 0 0 4.32 7.73h9.57a8.77 8.77 0 0 0 4.26-7.49 8.6 8.6 0 0 0 -1.23-4.43 9.74 9.74 0 0 1 -1.14-5.26z" fill="#7c9391"/><path d="m700.7 414.25h-13.85l-4.54 21.67h14.55z" fill="#7c9391"/><path d="m697.31 422.05 7.1 13.87h-4.87l-4.43-12.47z" fill="#7c9391"/><path d="m257 324.29s20.26-37.89 18.86-54h5.36s6.06 19.5 0 38.05-24.22 15.95-24.22 15.95z" fill="#c13432"/><path d="m234.65 199.94h138.76v67.22h-138.76z" fill="#bec5d2" transform="matrix(.9989306 .04623474 -.04623474 .9989306 11.13 -13.81)"/><path d="m344 200.33-.82 1.39 2.51.11s1.22 7.67 8.22 5.3-1.8-10.3-1.8-10.3l-5.7-1.83z" fill="#faab6c"/><path d="m259.86 188.94-5.86 2.81s-6.25 8.44-1.38 9.19a6.28 6.28 0 0 0 6.74-3.1l1.82.08-.24-2.86z" fill="#faab6c"/><path d="m292.11 144.18s-24.23 7.53-38.12 47.57l6.94 3.31s18.18-22.35 22.52-22.35h41.16s10.84 8.62 19.34 27.62l8.11-3.5s-16.95-47.13-41.61-52.65z" fill="var(--colors-primary, #d64541)"/><path d="m289.16 141.64s-7.26-12.61 1.54-17c0 0 8.06-7.47 17.44-2.63s6.9 14 5.06 20.52-24.04-.89-24.04-.89z" fill="#1e1e1e"/><path d="m291.58 146s9.36 11.3 18.74.45c0 0 4.64-.67 2.88-3.9 0 0-2.64-1.46-1.76-5.28 0 0-15.24 4.11-20.52 0 0 0 .88 1.76-1.76 4.4 0-.03-2.86 2.54 2.42 4.33z" fill="#faab6c"/><path d="m318.45 275.08-2.57-2.46-.94-4.92 3.09.14s2.5-5.34 5.83-3.17 1 6.07-1.63 10.91-3.78-.5-3.78-.5z" fill="#faab6c"/><path d="m247.27 375-13.2 7.39s-3.64 15.59.71 24.29 8.38 30.74 3.41 46-9.67 33.64-9.67 33.64l5.55-.36s18.1-32.76 21.2-46.53 8.2-39.54 8.2-39.54z" fill="#2d2d2d"/><path d="m272.66 480.86-3.45 5s-1.59 3.83 0 5.38 17.87 1.86 17.88 0-12.59-5.38-12.59-5.38z" fill="#3a3a3a"/><path d="m232.11 480.86-3.46 5s-1.59 3.83 0 5.38 17.88 1.86 17.89 0-12.54-5.36-12.54-5.36z" fill="#2d2d2d"/><path d="m262.22 307.18-1.53 1.6-2.47 12.3 9.01-6.37 1.49-7.43-4.46-8.48z" fill="#faab6c"/><path d="m248.6 294.11s-.08-9 6.67-9.84 4.41-5 9.18-5.74 2.84 8.94 2.84 8.94l3.71 12.42-7.74 1.76c2.95 4.21.46 6.16-.8 9.26.03 0-20.53-6.97-13.86-16.8z" fill="#1e1e1e"/><path d="m267.29 287.47s11.85 25 .14 20.33c-1.91-.76-4.14-6.15-4.14-6.15s-1 2.12-3.53-.95.86-3.83.86-3.83-.52-2.87.48-3.54c1.9-1.26 6.71-1.97 6.19-5.86z" fill="#faab6c"/><path d="m269.21 373.32 6.17 16.16s15.18 19.48 14.24 40.84-15.12 55.56-15.12 55.56h-5.29s8.07-32.07-11.87-70c0 0-29.39-9.08-23.27-33.52z" fill="#3a3a3a"/><path d="m315.88 272.62s-20.1 28.22-44.77 35.76-37.5 57.84-37 62.11l.47 4.28-.49 7.59 41.31 7.12 1.9-4.61s10-60.61 14.71-64.07 17.11-6.52 30.24-45.22z" fill="var(--colors-primary, #d64541)"/><path d="m275 265.85.85 4.48h5.36l.7-4.16s1.05-2.46-.24-2.17-1.67 2.08-1.67 2.08z" fill="#faab6c"/><circle cx="255.96" cy="229.46" fill="#dde0e8" r="13.28"/><rect fill="#dde0e8" height="7.03" rx="3.52" transform="matrix(1 .05 -.05 1 10.92 -14.51)" width="75.02" x="281.43" y="225.25"/><rect fill="#dde0e8" height="7.03" rx="3.52" transform="matrix(.9989306 .04623474 -.04623474 .9989306 11.52 -14.45)" width="75.02" x="280.43" y="238.23"/><path d="m614.57 368.17s-6.21-16.36 10.08-16.35c0 0 12 1.18 11.92 12-.11 12.46-7.86 14.74-7.86 14.74l-8-1.08z" fill="#1e1e1e"/><path d="m578 490.79.08 3.82-.08 2.31s-14.67-.46-13.59-2.31 10.42-2.11 10.42-2.11z" fill="#2d2d2d"/><path d="m623.29 443.75-4.49 8.42s-4.9 2.33-13.35 3c-9.26.68-22.3-.18-26.36 4.12-7.75 8.24-14.39 33.86-14.39 33.86l-3.25-2.15c-1.4-6.57-3-58.85 39.78-54.5 20.1 2.04 22.06 7.25 22.06 7.25z" fill="#2d2d2d"/><path d="m635.62 370.43s4.24-2.93 7.24 2.07-2 8.5 4.5 9.83 10 3.34 9.34 7.84 1 9.33 4.16 11 5 5 2.67 9-7.17 8-8.67 7.66-22.73-26.92-22.73-26.92-3.77.42-2.43-4.91 2.83-3.66 1.66-7.42 4.26-8.15 4.26-8.15z" fill="#1e1e1e"/><path d="m636.62 445.25-4.49 8.42s-4.9 2.33-13.35 3c-9.26.68-22.3-.18-26.35 4.12-7.75 8.21-14.43 33.82-14.43 33.82l-3.25-2.11c-1.4-6.57-3-58.85 39.79-54.5 20.13 2 22.08 7.25 22.08 7.25z" fill="#3a3a3a"/><path d="m626.7 386.33 5.43-1.78a27.69 27.69 0 0 1 16.73 10.45c6.67 9 13.27 44.2-5.06 41.7 0 0-2.44 9-4.6 11.63s-7.07 5.34-7.07 5.34-4.1-13-14.77-13.84l-19.83-2.33 4.17-10.67s-9.17-4.5-4.17-17.83 10.28-25.41 19.81-24.79 9.36 2.12 9.36 2.12z" fill="var(--colors-primary, #d64541)"/><path d="m615 362.88s-2.66 18.67 5.84 16.83v4.5h-3.46s1.37 7.21 6.71 6.67 8.08-6.33 8.08-6.33h-2.87l-.34-5.17s-1.66-4.5 0-7c0 0 6.5-4.33-.83-5.17-.77-1.89-8.91-4.4-11.79-6.41-.85.07-1.34.74-1.34 2.08z" fill="#faab6c"/><path d="m621.06 442.48 8.35-5.45a.47.47 0 0 0 -.18-.86l-6.82-1.17-.84.43a.46.46 0 0 1 -.2.05l-5.5.12a.47.47 0 0 0 -.35.77l4.92 6a.48.48 0 0 0 .62.11z" fill="#e5e5e5"/><path d="m617.47 413.12-36.47-1.55a1.41 1.41 0 0 0 -1.43 1.67l5.12 25.88a1.38 1.38 0 0 0 1.27 1.12l34.78 2.47a1.4 1.4 0 0 0 1.49-1.57l-3.4-26.8a1.4 1.4 0 0 0 -1.36-1.22z" fill="#f4f5f9"/><path d="m564.7 488.93.08 3.82-.08 2.31s-14.67-.45-13.59-2.31 10.42-2.1 10.42-2.1z" fill="#2d2d2d"/><rect fill="var(--colors-primary, #d64541)" height="47.49" rx="10.77" width="47.49" x="545.98" y="322.05"/><rect fill="var(--colors-primary, #d64541)" height="33.38" rx="6.83" width="33.38" x="655.09" y="288.59"/></g></svg>