<svg viewBox="0 0 745.23 571.72" xmlns="http://www.w3.org/2000/svg" xmlns:xlink="http://www.w3.org/1999/xlink">
<g id="main">
  <linearGradient id="a" gradientTransform="matrix(.48 -.88 -.88 -.48 -1376.48 -2719.3)" gradientUnits="userSpaceOnUse" x1="-1879.84" x2="-1789.15" y1="-2787.48" y2="-2787.48">
    <stop offset="0" stop-color="#fff" stop-opacity=".6"/>
    <stop offset="1" stop-color="#fff"/>
  </linearGradient>
  <path d="m83.29 141.79-14.07 35.3-35.3-14.09 14.08-35.28zm-37.52 16.13 18.36 7.32 7.31-18.36-18.35-7.31z" fill="#c7dddd"/>
  <path d="m165 261.34 3 20.54-20.54 3-3-20.54zm-13.34 17.86 10.69-1.54-1.55-10.66-10.68 1.54z" fill="#c7dddd"/>
  <path d="m158.91 195.63 3 20.54-20.54 3-3-20.54zm-13.36 17.87 10.68-1.5-1.54-10.68-10.69 1.5z" fill="#96a9a8"/>
  <g fill="#c7dddd">
    <circle cx="704.78" cy="53.51" r="9.37"/>
    <circle cx="670.4" cy="53.51" r="9.37"/>
    <circle cx="636.03" cy="53.51" r="9.37"/>
    <circle cx="601.65" cy="53.51" r="9.37"/>
    <circle cx="567.28" cy="53.51" r="9.37"/>
    <circle cx="704.78" cy="86.3" r="9.37"/>
    <circle cx="670.4" cy="86.3" r="9.37"/>
    <circle cx="636.03" cy="86.3" r="9.37"/>
    <circle cx="601.65" cy="86.3" r="9.37"/>
    <circle cx="567.28" cy="86.3" r="9.37"/>
    <circle cx="704.78" cy="119.09" r="9.37"/>
    <circle cx="670.4" cy="119.09" r="9.37"/>
    <circle cx="636.03" cy="119.09" r="9.37"/>
    <circle cx="601.65" cy="119.09" r="9.37"/>
    <circle cx="567.28" cy="119.09" r="9.37"/>
    <circle cx="704.78" cy="151.87" r="9.37"/>
    <circle cx="670.4" cy="151.87" r="9.37"/>
    <circle cx="636.03" cy="151.87" r="9.37"/>
    <circle cx="601.65" cy="151.87" r="9.37"/>
    <circle cx="567.28" cy="151.87" r="9.37"/>
    <circle cx="704.78" cy="184.66" r="9.37"/>
    <circle cx="670.4" cy="184.66" r="9.37"/>
    <circle cx="636.03" cy="184.66" r="9.37"/>
    <circle cx="601.65" cy="184.66" r="9.37"/>
    <circle cx="567.28" cy="184.66" r="9.37"/>
    <circle cx="125.35" cy="6.67" r="6.67"/>
    <circle cx="100.87" cy="6.67" r="6.67"/>
    <circle cx="76.4" cy="6.67" r="6.67"/>
    <circle cx="51.93" cy="6.67" r="6.67"/>
    <circle cx="27.46" cy="6.67" r="6.67"/>
    <circle cx="125.35" cy="30.01" r="6.67"/>
    <circle cx="100.87" cy="30.01" r="6.67"/>
    <circle cx="76.4" cy="30.01" r="6.67"/>
    <circle cx="51.93" cy="30.01" r="6.67"/>
    <circle cx="27.46" cy="30.01" r="6.67"/>
    <circle cx="125.35" cy="53.36" r="6.67"/>
    <circle cx="100.87" cy="53.36" r="6.67"/>
    <circle cx="76.4" cy="53.36" r="6.67"/>
    <circle cx="51.93" cy="53.36" r="6.67"/>
    <circle cx="27.46" cy="53.36" r="6.67"/>
    <circle cx="125.35" cy="76.7" r="6.67"/>
    <circle cx="100.87" cy="76.7" r="6.67"/>
    <circle cx="76.4" cy="76.7" r="6.67"/>
    <circle cx="51.93" cy="76.7" r="6.67"/>
    <circle cx="27.46" cy="76.7" r="6.67"/>
    <circle cx="125.35" cy="100.04" r="6.67"/>
    <circle cx="100.87" cy="100.04" r="6.67"/>
    <circle cx="76.4" cy="100.04" r="6.67"/>
    <circle cx="51.93" cy="100.04" r="6.67"/>
    <circle cx="27.46" cy="100.04" r="6.67"/>
    <path d="m680 463s78-58.25 9-174c-18.62-31.21-17.55-40.05-36.77-95.86-50.6-146.88-174-6.48-241.14-66.5-52.19-46.64 130.41-166.13-193.78-103.75-59.69 11.48-111.51 46.82-138.64 129.51-19 58 14.87 112.23-33.46 155.23s-35.21 44.56-33.21 89.42 27 66.7 27 66.7z"/>
  </g>
  <path d="m646 295.68v159.71h-65.93v-159.71zm-60.14 154.16h54.33v-46.25h-54.33zm0-51.8h54.33v-46.25h-54.33zm0-51.8h54.33v-46.24h-54.33z" fill="#96a9a8"/>
  <path d="m602.86 306.34h8.5v39.9h-8.5z" fill="#7c9391" transform="matrix(-1 0 0 -1 1214.23 652.59)"/>
  <path d="m615.72 306.34h6.21v39.9h-6.21z" fill="#7c9391" transform="matrix(-.97503322 .22205905 -.22205905 -.97503322 1294.65 507.02)"/>
  <path d="m625.88 306.89h6.21v39.9h-6.21z" fill="#7c9391" transform="matrix(-.90726434 .42056083 -.42056083 -.90726434 1337.1 358.84)"/>
  <path d="m594.36 310.84h8.5v35.4h-8.5z" fill="#7c9391" transform="matrix(-1 0 0 -1 1197.23 657.09)"/>
  <path d="m585.86 303.59h8.5v42.65h-8.5z" fill="#7c9391" transform="matrix(-1 0 0 -1 1180.23 649.84)"/>
  <path d="m627.32 279.38h-28.58l3-24.81h22.58z" fill="#7c9391"/>
  <path d="m619.72 278.51v-.11a6.69 6.69 0 0 0 -6.6-6.56 6.61 6.61 0 0 0 -6.79 6.51v.36a9.89 9.89 0 0 1 -1.33 5.29 8.57 8.57 0 0 0 -1 4 8.86 8.86 0 0 0 4.32 7.72h9.58a8.77 8.77 0 0 0 4.26-7.49 8.63 8.63 0 0 0 -1.23-4.44 9.69 9.69 0 0 1 -1.21-5.28z" fill="#7c9391"/>
  <path d="m64.76 249.42h77.56v5.2h-77.56z" fill="#96a9a8"/>
  <path d="m93.12 216.35h7.22v33.91h-7.22z" fill="#7c9391" transform="matrix(-1 0 0 -1 193.46 466.61)"/>
  <path d="m104.04 216.35h5.28v33.91h-5.28z" fill="#7c9391" transform="matrix(-.98 .22 -.22 -.98 262.51 437.1)"/>
  <path d="m112.68 216.81h5.28v33.91h-5.28z" fill="#7c9391" transform="matrix(.90726434 -.42056083 .42056083 .90726434 -87.62 70.18)"/>
  <path d="m85.89 220.18h7.22v30.09h-7.22z" fill="#7c9391" transform="matrix(-1 0 0 -1 179.01 470.44)"/>
  <path d="m78.67 223.39h7.22v26.87h-7.22z" fill="#7c9391" transform="matrix(-1 0 0 -1 164.56 473.65)"/>
  <path d="m36.8 436.77s-7.26-51.52-34-58.08c0 0-4.68 6.16 4.69 12.45s6.32 9.1 8.19 14.72 9.14 5.43 9.84 13.14 11.28 17.77 11.28 17.77z" fill="#7c9391"/>
  <path d="m36.56 436.77s-6.34-51.64 17.74-64.89c0 0 6.12 4.74-1.3 13.24s-3.75 10.42-4.1 16.33-7.41 7.62-6.09 15.24-6.25 20.08-6.25 20.08z" fill="#7c9391"/>
  <path d="m37.76 434.31s15.9-39.25 38.24-39.16c0 0 2.49 5.79-6.15 8.9s-6.79 5.94-9.38 10-8.28 2.49-10.36 8.43-12.35 11.83-12.35 11.83z" fill="#7c9391"/>
  <path d="m48.98 456.92h-24.24l-3.51-24.94h31.96z" fill="#96a9a8"/>
  <rect fill="#526c6d" height="14.93" rx="7.47" transform="matrix(-1 0 0 -1 739.71 929.02)" width="730.46" x="4.62" y="457.04"/>
  <path d="m404.08 260.29h.44z" fill="#596ab2"/>
  <path d="m391.32 260.29h-.44z" fill="#596ab2"/>
  <path d="m421.52 290.22a.39.39 0 0 0 0 .43z" fill="#596ab2"/>
  <path d="m12.55 216.15 47.73-5.69-22.55 41.25-7.15-11.43-17.95 15.6-12.63-15.42 21.78-15.3z" fill="#c7dddd"/>
  <path d="m474.21 31.33-51 46.24 65.78 14.38-5.63-18.46 33.72-4.75-4.8-28.14-37.01 9.17z" fill="#c7dddd"/>
  <path d="m222.18 233.17a16.26 16.26 0 1 1 -16.26 16.25 16.25 16.25 0 0 1 16.26-16.25zm0 24.66a8.41 8.41 0 1 0 -8.41-8.41 8.41 8.41 0 0 0 8.41 8.41z" fill="#96a9a8"/>
  <path d="m567.57 224a12.81 12.81 0 1 1 -12.8 12.8 12.8 12.8 0 0 1 12.8-12.8zm0 19.43a6.63 6.63 0 1 0 -6.62-6.63 6.63 6.63 0 0 0 6.62 6.65z" fill="#96a9a8"/>
  <path d="m108.64 145.71a12.81 12.81 0 1 1 -12.81 12.8 12.81 12.81 0 0 1 12.81-12.8zm0 19.43a6.63 6.63 0 1 0 -6.63-6.63 6.63 6.63 0 0 0 6.63 6.63z" fill="#96a9a8"/>
  <path d="m696.7 228a12.81 12.81 0 1 1 -12.81 12.81 12.81 12.81 0 0 1 12.81-12.81zm0 19.43a6.63 6.63 0 1 0 -6.63-6.62 6.62 6.62 0 0 0 6.63 6.57z" fill="#c7dddd"/>
  <path d="m536.9 115.37a12.81 12.81 0 1 1 -12.81 12.81 12.81 12.81 0 0 1 12.81-12.81zm0 19.43a6.63 6.63 0 1 0 -6.63-6.62 6.62 6.62 0 0 0 6.63 6.62z" fill="#c7dddd"/>
  <path d="m463.55 114.91a12.81 12.81 0 1 1 -12.8 12.81 12.8 12.8 0 0 1 12.8-12.81zm0 19.43a6.63 6.63 0 1 0 -6.62-6.62 6.62 6.62 0 0 0 6.62 6.62z" fill="#c7dddd"/>
  <path d="m519.65 91.23a8.81 8.81 0 1 1 -8.8 8.81 8.8 8.8 0 0 1 8.8-8.81zm0 13.36a4.56 4.56 0 1 0 -4.56-4.55 4.56 4.56 0 0 0 4.56 4.55z" fill="#c7dddd"/>
  <path d="m528.2 296.1-8.07 27.54-27.54-8.06 8.06-27.58zm-27.07 14.8 14.33 4.2 4.19-14.33-14.32-4.19z" fill="#96a9a8"/>
  <path d="m667.19 249.51-4.19 14.32-14.32-4.2 4.19-14.32zm-14.08 7.69 7.45 2.18 2.18-7.44-7.45-2.19z" fill="#96a9a8"/>
  <path d="m459.74 15.09-6.58 22.48-22.49-6.57 6.59-22.5zm-22.09 12.08 11.69 3.43 3.42-11.7-11.69-3.42z" fill="#c7dddd"/>
  <path d="m286 90.3-8.07 27.54-27.54-8.06 8.07-27.55zm-27.06 14.8 14.32 4.2 4.18-14.3-14.32-4.19z" fill="#96a9a8"/>
  <path d="m290.37 541.39h-.43z" fill="#b6bac6"/>
  <path d="m302.88 541.39h.43z" fill="#b6bac6"/>
  <path d="m353.62 117.65-6.5 18 1.02 11.2 2.23 5.55h44.25l5.25-8.75-4-19.75z" fill="#d64541"/>
  <path d="m273.27 571.29a.39.39 0 0 1 0 .43z" fill="#b6bac6"/>
  <rect fill="#212828" height="27.31" rx="6.49" width="457.99" x="139.21" y="431.51"/>
  <path d="m174.71 147.51h391a13.5 13.5 0 0 1 13.5 13.5v270.5a0 0 0 0 1 0 0h-418a0 0 0 0 1 0 0v-270.51a13.5 13.5 0 0 1 13.5-13.49z" fill="#181e1f"/>
  <path d="m172.21 158.51h393.17v260h-393.17z" fill="#f4f5f9"/>
  <path d="m357.62 218.51h186.25v59.61h-186.25z" fill="#dde0e8"/>
  <path d="m357.62 292.51h87.58v59.61h-87.58z" fill="#dde0e8"/>
  <path d="m357.62 362.01h87.58v56.5h-87.58z" fill="#dde0e8"/>
  <path d="m456.29 362.01h87.58v56.5h-87.58z" fill="#dde0e8"/>
  <path d="m456.29 292.51h87.58v59.61h-87.58z" fill="#dde0e8"/>
  <path d="m525.87 180.18h18v2.67h-18z" fill="#b6bac6"/>
  <path d="m525.87 186.68h18v2.67h-18z" fill="#b6bac6"/>
  <path d="m525.87 193.18h18v2.67h-18z" fill="#b6bac6"/>
  <path d="m198.21 180.18h74v21.33h-74z" fill="#b6bac6"/>
  <path d="m198.21 218.51h129v113.43h-129z" fill="#dde0e8"/>
  <path d="m198.21 342.48h129v7.03h-129z" fill="#dde0e8"/>
  <path d="m198.21 360.05h112.75v7.03h-112.75z" fill="#dde0e8"/>
  <path d="m198.21 375.8h129v7.03h-129z" fill="#dde0e8"/>
  <path d="m198.21 391.55h120.25v7.03h-120.25z" fill="#dde0e8"/>
  <path d="m88.69 350.87 6.31 7.78s3.23 23.5-27.22 56.16-33.12 35-33.12 35l-2.57-2.18.91-1.82s37-59.2 36.73-72.66 18.96-22.28 18.96-22.28z" fill="#2d2d2d"/>
  <path d="m118.69 448.48s0 10.67 2.84 10.33 15.5-6.5 15-9-13.84 1.34-13.84 1.34z" fill="#2d2d2d"/>
  <path d="m84.36 356.81s14.42 13 21.71 36.34 16.62 58 16.62 58l-3.7 2.13s-32-56.8-58.63-73.8c0 0-17.17-12-15.58-20.83s39.58-1.84 39.58-1.84z" fill="#3a3a3a"/>
  <path d="m76.59 284.48s10.69-.58 14.69 19.67 8 43.75 3.75 46.25v8.25s-31.75 7.75-50.25 0v-5.84s-4.75-12.16 0-46.16c0 0 1-21.92 12.25-21.84s19.56-.33 19.56-.33z" fill="#d64541"/>
  <path d="m75.53 269.77 1.06-.5s3.94-2.75 2.56-8.62.34-6 .29-7.38-22.44-8.75-25.29 8.25c0 0-7 10.35 8 18.13s.84-12.17.84-12.17z" fill="#1e1e1e"/>
  <path d="m76.19 263.15s2.67 18.66-5.83 16.83v4.5h3.46s-1.38 7.21-6.71 6.67-8.11-6.34-8.11-6.34h2.83l.33-5.16s1.67-4.5 0-7c0 0-6.5-4.34.84-5.17a4.24 4.24 0 0 0 -.71-4.92c4.8.25 9.61.52 12.5-1.5.88.07 1.35.75 1.4 2.09z" fill="#faab6c"/>
  <path d="m56.22 284.85s-19.86-.37-25.86 37.3c-.95 6 1.21 16.33 5.42 19.68a42.76 42.76 0 0 0 28.58 9z" fill="#d64541"/>
  <path d="m79.44 285.06c5.58 1.5 15 13.06 21.73 23.44 0 0 17.19-18 25.52-18.32l4.67-3 3.33 6.26-3.66 2.7s-21 36.89-36 27.76-15.59-38.84-15.59-38.84z" fill="#d64541"/>
  <circle cx="174.51" cy="235.33" fill="url(#a)" r="45.34"/>
  <path d="m138.41 203.2a48.33 48.33 0 1 1 7.47 71.07l-70.65 84.25c-2 2.34-6.24 1.9-9.49-1-3.24-2.88-4.18-7.08-2.08-9.31l75.49-79.94a48.33 48.33 0 0 1 -.74-65.07zm7.65 64.09a42.79 42.79 0 1 0 -3.51-60.41 42.79 42.79 0 0 0 3.51 60.41z" fill="#181e1f"/>
  <path d="m138.76 281c1.22 2.31 2 6.67-4.07 12.48l-1.91-3.59s1.86-2.95 1.22-4.65c0 0-1.85-4.13.76-5.59a3 3 0 0 1 4 1.35z" fill="#faab6c"/>
  <path d="m81 339.65s6.75.25 9-2.75 4.06-.38.29 3.63c2.83-.67-.5 9.31-6.07 7.24a12.07 12.07 0 0 1 -4.81-3.12v-4.79z" fill="#faab6c"/>
  <path d="m60.77 332s13.88 3.45 15.82 6.2l4.44 1.5-1.59 5h-3.91s-9.94 3.62-25.35 3.06 10.59-15.76 10.59-15.76z" fill="#d64541"/>
  <path d="m36.28 446-4.16 1.61s-6 1.52-5 5.14 6.75 5.88 6.75 5.88h12s1.38-3.46-4.75-4.34-5.87-5-5.87-5z" fill="#2d2d2d"/>
  <path d="m643 353.4s-8.15 10.43-11.33 36.17c0 0-1.38-7.17-4.33 3.33 1.39-2.24 5.2 11.17 13.25 7 10.75-5.59 13.28-29.8 13.28-29.8z" fill="#d64541"/>
  <path d="m716.61 356s3.14-2.69.11-3.34-.11 3.34-.11 3.34z" fill="#faab6c"/>
  <path d="m645 408.71c1.67 5.33-4.33 51 9.67 49.66a207.23 207.23 0 0 0 29-5.33l2.67-5-4.34-1.33s-26.58 9.58-11.33-19.17c15.98-30.16-25.67-18.83-25.67-18.83z" fill="#2d2d2d"/>
  <path d="m659.75 346.29 1.23-2.87s13.32-7.81 24.85 10.87c14.26 23.1 14.8-.92 18.51-2.41l.9-3 6 2.11a31.19 31.19 0 0 1 -.89 3.48c1 1.8-2.65 44.15-25.36 24.58 0 0 7.54 22.22 4 25.71l-.69 6.7-46.38-5.2s-12.11-47.6 6.1-57.56c23.08-12.63 11.73-2.41 11.73-2.41z" fill="#d64541"/>
  <path d="m683.66 453-1.66-6.29s4.5-1.34 5.5-.67 2.34 14.39-1.16 14.36-6-.36-4.34-2.86 2.49-1.33 1.66-4.54z" fill="#2d2d2d"/>
  <path d="m688.37 410.09s0 21.45-19.54 21.45c-11.69 0-42.75-18.42-44.5-8.5-3.23 18.23-3 30-3 30l-4.67 3-1-3.67s-11.33-43.5 2.42-48.83c9.75-3.79 47.58 1.56 47.58 1.56z" fill="#3a3a3a"/>
  <path d="m621.33 458.4s-15.17 1.14-15.33-1.4 9.87-3.91 9.87-3.91l5.47-.09s1.01 5.33-.01 5.4z" fill="#2d2d2d"/>
  <path d="m655.36 339.6s5.12-2.72.9-14.46l-11.94-5.38-3.15 6.15z" fill="#1e1e1e"/>
  <path d="m633.51 330.63s6 16.32 13.4 14.72 9.64-7.7 8.39-10.49c0 0 5.52-5.72-1.6-5.09l-2.64-6.69-12.7-2.19z" fill="#faab6c"/>
  <path d="m656.26 325.14s-4.07-13.54-14.25-9.89c-7.11 2.55-11.89 6-8.3 15.94 0 0 8.29-6.08 22.55-6.05z" fill="#d64541"/>
  <path d="m653.15 335.34 2.15-.48 3 9.05 2.67-.49s-3.32 10.16-9.47 9.21-3.49-3.94-3.49-3.94l-1.37-4.1z" fill="#faab6c"/>
  <path d="m652.25 325.3s-12.06 7.86-15.75 8.57-3.37-.36-6.5 2.41c0 0-1.47-.37 3.71-5.09s12.54-7.77 18.54-5.89z" fill="#d64541"/>
  <path d="m693.52 262.27 6 6.68-10.52 20.05 8.1 17.15 21.81-1.07 9.91-14.43-9.79-20.83 7.67-4.84c46.41 41.31-9.09 56.33-9.09 56.33l-4.31 130.11a10.21 10.21 0 0 1 -10.55 9.88 10.21 10.21 0 0 1 -9.88-10.55l4.29-129.61h-.87c-40.97-28.92-2.77-58.87-2.77-58.87zm9.6 193.58a5.81 5.81 0 1 0 -5.81-5.81 5.81 5.81 0 0 0 5.81 5.81z" fill="#17697f"/>
  <path d="m716.61 356s1.59-.75 1.84 2.12 1.46 6.39-2.14 7.14-5.91-6.1.3-9.26z" fill="#faab6c"/>
  <path d="m318.46 76.06q1.85-18.31 22.33-22.33c-12.24-3-19.77-10.35-22.33-22.34-2.19 11.65-9.08 19.55-22.34 22.34 15.43.88 22.38 8.74 22.34 22.33z" fill="#96a9a8"/>
  <path d="m346.46 37.24q1.13-11.18 13.63-13.63c-7.47-1.82-12.09-6.31-13.63-13.61-1.34 7.11-5.54 11.93-13.63 13.63 9.42.52 13.66 5.37 13.63 13.61z" fill="#96a9a8"/>
  <path d="m622.55 361.32h19.87v33.16h-19.87z" fill="#596ab2" transform="matrix(.99126165 -.13191038 .13191038 .99126165 -44.35 86.79)"/>
  <path d="m626.56 360.78h7.37v2.55h-7.37z" fill="#9494bf" transform="matrix(-.9900973 .14038284 -.14038284 -.9900973 1305.06 632.07)"/>
  <path d="m365.75 64.17-5.81-5.61s-6.07-14 0-19.53c0 0 4.93-11 20.18-6.75s11.1 21.53 8.3 26.8-22.67 5.09-22.67 5.09z" fill="#1e1e1e"/>
  <path d="m347.74 128.74s-4.65 15.23 3.94 19a6 6 0 0 1 3.32 6.87l-7.63 33.24 9 1.75 17.25-38.5s.16 7.5 1.71 9.5 15.54 29 15.54 29l6.59-2.41s-9.84-33.62-5.59-39.73c0 0 13.25 3.39 10.75-23.79-1.62-17.7-24-15.82-24-15.82z" fill="#3a3a3a"/>
  <path d="m373 35.07-15.76 10.33s.72 22-1.45 24.67 32 3.49 36.5 0c0 0-1.68-13.25-1.17-23.54z" fill="#1e1e1e"/>
  <path d="m622.7 379.66s-3.27 5.22 1.11 8.43c0 0 11-4.52 3.48-10.4-1.7-1.34-4.35 3.78-4.35 3.78z" fill="#faab6c"/>
  <path d="m341.85 122.25s-10.93 2-9.71-17.81 18.27-39.64 35.37-39.95l17.1-.32s20.39 5.48 31.51 36.63c4.55 12.77-2.87 20.13-13.2 24.37 0 0 4.45 16.23-3.05 18.48-5-24.25-53-30.75-51.73 3.2-3-1.75-6.29-24.6-6.29-24.6z" fill="#d64541"/>
  <path d="m362.87 63.81s11.36 13.71 22.75.54c0 0 5.64-.81 3.5-4.73 0 0-3.2-1.78-2.13-6.4 0 0-16.56 6.35-23.77.51 0 0-.08 1.62-3.28 4.83 0 0-3.48 3.11 2.93 5.25z" fill="#faab6c"/>
  <rect fill="#f4f5f9" height="32.77" rx="2.97" width="50.37" x="348.14" y="104.94"/>
  <path d="m363.21 48.1-5.09 4.9s1.09 18.28-1.87 20.81a7.06 7.06 0 0 1 -3.63 1.75s5.63 5.37 9.5 2.37 2.9-12 2.9-12z" fill="#1e1e1e"/>
  <path d="m384.62 54 5.16-4s-.34 21.22 2.62 23.75a7.13 7.13 0 0 0 3.6 1.78s-5.63 5.37-9.5 2.37-2.89-12-2.89-12z" fill="#1e1e1e"/>
  <path d="m353.62 177.24-6.25 10.66s-3.08 15.67 2.09 17 6.91-15.25 6.91-15.25z" fill="#3a3a3a"/>
  <path d="m391.62 183.4-.75 6.25s-5.25 13.24 0 15.33 6.59-17.74 6.59-17.74z" fill="#3a3a3a"/>
  <path d="m261.16 247.8h198.25v95.33h-198.25z" fill="#212828"/>
  <path d="m364.81 284.57a2.81 2.81 0 0 0 .55-.15 1.54 1.54 0 0 0 .91-.86 4.66 4.66 0 0 0 .22-1.48 11.08 11.08 0 0 0 -.23-2.3 7.23 7.23 0 0 0 -.78-2.2 1.74 1.74 0 0 0 -1.94-.89 7.14 7.14 0 0 1 -3.12.07 4.49 4.49 0 0 1 -3.3-2.53 5.06 5.06 0 0 1 .27-5l.34-.56a1.5 1.5 0 0 0 0-1.58 5.92 5.92 0 0 0 -1.54-1.9 7.6 7.6 0 0 0 -3.2-1.59l-.39-.07a.9.9 0 0 0 -.6.1 2.9 2.9 0 0 0 -1.07.93 5.43 5.43 0 0 1 -.66.84 5.23 5.23 0 0 1 -5.26 1.41 3.85 3.85 0 0 1 -1.56-.79 5.84 5.84 0 0 1 -2-3.29 3.14 3.14 0 0 0 -.31-.89 1.12 1.12 0 0 0 -.85-.64l-.38-.07a2.8 2.8 0 0 0 -.58-.08 9.74 9.74 0 0 0 -4.33.78 3 3 0 0 0 -1.1.86 1.31 1.31 0 0 0 -.31 1 8.69 8.69 0 0 1 -.61 3.94 4.35 4.35 0 0 1 -1.05 1.69 5 5 0 0 1 -4.9 1 7.16 7.16 0 0 1 -1.82-.84 1.67 1.67 0 0 0 -1.92.1 5.74 5.74 0 0 0 -1.24 1.22 8.6 8.6 0 0 0 -1.45 2.72l-.19 1s0 0 0 .07a1.82 1.82 0 0 0 .79 1.68 7 7 0 0 1 2.5 2.86 4.41 4.41 0 0 1 -.68 4.71 7.13 7.13 0 0 1 -2 1.51 7.58 7.58 0 0 1 -1.91.66 1.44 1.44 0 0 0 -.94.75c-.1.17-.11.38-.21.55v.1a.9.9 0 0 1 -.08.42v.23a4.9 4.9 0 0 1 0 .54 9.55 9.55 0 0 0 .87 4 2.17 2.17 0 0 0 2.25 1.27 8 8 0 0 1 3 .22 4 4 0 0 1 1.84 1 4.42 4.42 0 0 1 1.19 3.89 5.73 5.73 0 0 1 -1.05 2.38 1.93 1.93 0 0 0 .12 2.58 8.77 8.77 0 0 0 2.08 1.81 7.67 7.67 0 0 0 3 1.32 1.89 1.89 0 0 0 2-.86 5.17 5.17 0 0 1 .52-.71 6.27 6.27 0 0 1 1.78-1.42 4.59 4.59 0 0 1 4.84.1 5.54 5.54 0 0 1 2.42 3.61 5.32 5.32 0 0 0 .25.77 1.46 1.46 0 0 0 1 .93 6 6 0 0 0 1 .16 9.19 9.19 0 0 0 3.67-.63 4.59 4.59 0 0 0 1.17-.59 2 2 0 0 0 .75-2.2 5.52 5.52 0 0 1 .18-3.17 4.67 4.67 0 0 1 2.19-2.59 4.92 4.92 0 0 1 3.38-.26 8.25 8.25 0 0 1 2.28.89 2 2 0 0 0 .54.19 2.71 2.71 0 0 0 2.28-.68 8 8 0 0 0 2.33-3.66 2.27 2.27 0 0 0 -.13-2 3.32 3.32 0 0 0 -1-1 5 5 0 0 1 -1.35-7.09 5.67 5.67 0 0 1 3.53-2.29zm-24.81 11.43a10.92 10.92 0 1 1 12.8-8.72 10.93 10.93 0 0 1 -12.8 8.72z" fill="#d64541"/>
  <path d="m398.27 290.83a2.18 2.18 0 0 0 .37-.2 1.2 1.2 0 0 0 .51-.77 3.7 3.7 0 0 0 -.09-1.1 9.17 9.17 0 0 0 -.55-1.6 5.47 5.47 0 0 0 -.93-1.44 1.28 1.28 0 0 0 -1.54-.31 5.33 5.33 0 0 1 -2.22.57 3.3 3.3 0 0 1 -2.78-1.26 3.7 3.7 0 0 1 -.65-3.64c0-.15.1-.3.14-.45a1.09 1.09 0 0 0 -.25-1.14 4.25 4.25 0 0 0 -1.42-1.1 5.63 5.63 0 0 0 -2.55-.6h-.31a.62.62 0 0 0 -.4.18 2.07 2.07 0 0 0 -.62.84 3.53 3.53 0 0 1 -.33.71 3.85 3.85 0 0 1 -1.65 1.52 4 4 0 0 1 -1.87.37 2.84 2.84 0 0 1 -1.25-.3 4.29 4.29 0 0 1 -2-2 2.78 2.78 0 0 0 -.37-.59.85.85 0 0 0 -.72-.31h-.31a3 3 0 0 0 -.43 0 7.12 7.12 0 0 0 -3 1.29 2.18 2.18 0 0 0 -.65.79 1 1 0 0 0 -.05.75 6.46 6.46 0 0 1 .22 2.93 3.11 3.11 0 0 1 -.47 1.38 3.7 3.7 0 0 1 -3.34 1.53 6.06 6.06 0 0 1 -1.44-.3 1.21 1.21 0 0 0 -1.35.4 4.19 4.19 0 0 0 -.68 1.08 5.88 5.88 0 0 0 -.58 2.18v.77a.13.13 0 0 1 0 .06 1.34 1.34 0 0 0 .85 1.07 5.09 5.09 0 0 1 2.26 1.62 3.23 3.23 0 0 1 .3 3.49 5.24 5.24 0 0 1 -1.16 1.41 5.68 5.68 0 0 1 -1.26.79 1.09 1.09 0 0 0 -.55.69c0 .15 0 .29-.05.43v.07a.58.58 0 0 1 0 .32v.17c0 .13 0 .27.06.4a7.13 7.13 0 0 0 1.3 2.72 1.58 1.58 0 0 0 1.82.53 5.71 5.71 0 0 1 2.2-.35 3 3 0 0 1 1.48.38 3.27 3.27 0 0 1 1.51 2.58 4.17 4.17 0 0 1 -.35 1.88 1.4 1.4 0 0 0 .52 1.82 6.11 6.11 0 0 0 1.78.95 5.81 5.81 0 0 0 2.4.44 1.38 1.38 0 0 0 1.29-.95 4 4 0 0 1 .25-.6 4.74 4.74 0 0 1 1-1.31 3.37 3.37 0 0 1 3.48-.75 4.11 4.11 0 0 1 2.34 2.18 2.67 2.67 0 0 0 .31.51 1.08 1.08 0 0 0 .83.51 4.9 4.9 0 0 0 .77-.06 6.63 6.63 0 0 0 2.52-1.07 3.34 3.34 0 0 0 .74-.62 1.46 1.46 0 0 0 .16-1.7 4.06 4.06 0 0 1 -.4-2.3 3.35 3.35 0 0 1 1.13-2.21 3.63 3.63 0 0 1 2.38-.76 6.38 6.38 0 0 1 1.78.25 1.16 1.16 0 0 0 .42.05 2 2 0 0 0 1.51-.87 5.91 5.91 0 0 0 1.06-3 1.73 1.73 0 0 0 -.43-1.42 2.48 2.48 0 0 0 -.86-.53 3.58 3.58 0 0 1 -2.08-1.9 3.61 3.61 0 0 1 -.07-3 4.15 4.15 0 0 1 2.32-2.1zm-15.8 12.31a8 8 0 1 1 7.69-8.39 8 8 0 0 1 -7.69 8.39z" fill="#d64541"/>
  <rect fill="#ced2d8" height="3.93" rx="1.97" width="169.08" x="277.41" y="325.14"/>
  <rect fill="#f4f5f9" height="3.93" rx="1.97" width="124.33" x="277.41" y="325.14"/>
  </g>
</svg>
