<svg viewBox="0 0 776 524" xmlns="http://www.w3.org/2000/svg" xmlns:xlink="http://www.w3.org/1999/xlink"><g id="main"><linearGradient id="a" gradientTransform="matrix(.48 -.88 -.88 -.48 -1338.93 -2655.61)" gradientUnits="userSpaceOnUse" x1="-1866.58" x2="-1775.89" y1="-2752.39" y2="-2752.39"><stop offset="0" stop-color="#fff" stop-opacity=".6"/><stop offset="1" stop-color="#fff"/></linearGradient><path d="m96.55 176.88-14.07 35.3-35.3-14.06 14.07-35.3zm-37.55 16.12 18.35 7.32 7.35-18.32-18.36-7.32z" fill="var(--pages-home-images-background, #ededed)"/><path d="m178.28 296.43 3 20.54-20.54 3-3-20.54zm-13.36 17.87 10.68-1.54-1.54-10.68-10.68 1.54z" fill="var(--pages-home-images-background, #ededed)"/><path d="m172.16 230.73 3 20.54-20.54 3-3-20.54zm-13.35 17.87 10.68-1.55-1.49-10.68-10.69 1.54z" fill="#96a9a8"/><g fill="var(--pages-home-images-background, #ededed)"><circle cx="718.03" cy="88.61" r="9.37"/><circle cx="683.66" cy="88.61" r="9.37"/><circle cx="649.28" cy="88.61" r="9.37"/><circle cx="614.91" cy="88.61" r="9.37"/><circle cx="580.54" cy="88.61" r="9.37"/><circle cx="718.03" cy="121.4" r="9.37"/><circle cx="683.66" cy="121.4" r="9.37"/><circle cx="649.28" cy="121.4" r="9.37"/><circle cx="614.91" cy="121.4" r="9.37"/><circle cx="580.54" cy="121.4" r="9.37"/><circle cx="718.03" cy="154.18" r="9.37"/><circle cx="683.66" cy="154.18" r="9.37"/><circle cx="649.28" cy="154.18" r="9.37"/><circle cx="614.91" cy="154.18" r="9.37"/><circle cx="580.54" cy="154.18" r="9.37"/><circle cx="718.03" cy="186.97" r="9.37"/><circle cx="683.66" cy="186.97" r="9.37"/><circle cx="649.28" cy="186.97" r="9.37"/><circle cx="614.91" cy="186.97" r="9.37"/><circle cx="580.54" cy="186.97" r="9.37"/><circle cx="718.03" cy="219.76" r="9.37"/><circle cx="683.66" cy="219.76" r="9.37"/><circle cx="649.28" cy="219.76" r="9.37"/><circle cx="614.91" cy="219.76" r="9.37"/><circle cx="580.54" cy="219.76" r="9.37"/><circle cx="138.6" cy="41.77" r="6.67"/><circle cx="114.13" cy="41.77" r="6.67"/><circle cx="89.66" cy="41.77" r="6.67"/><circle cx="65.19" cy="41.77" r="6.67"/><circle cx="40.72" cy="41.77" r="6.67"/><circle cx="138.6" cy="65.11" r="6.67"/><circle cx="114.13" cy="65.11" r="6.67"/><circle cx="89.66" cy="65.11" r="6.67"/><circle cx="65.19" cy="65.11" r="6.67"/><circle cx="40.72" cy="65.11" r="6.67"/><circle cx="138.6" cy="88.45" r="6.67"/><circle cx="114.13" cy="88.45" r="6.67"/><circle cx="89.66" cy="88.45" r="6.67"/><circle cx="65.19" cy="88.45" r="6.67"/><circle cx="40.72" cy="88.45" r="6.67"/><circle cx="138.6" cy="111.79" r="6.67"/><circle cx="114.13" cy="111.79" r="6.67"/><circle cx="89.66" cy="111.79" r="6.67"/><circle cx="65.19" cy="111.79" r="6.67"/><circle cx="40.72" cy="111.79" r="6.67"/><circle cx="138.6" cy="135.14" r="6.67"/><circle cx="114.13" cy="135.14" r="6.67"/><circle cx="89.66" cy="135.14" r="6.67"/><circle cx="65.19" cy="135.14" r="6.67"/><circle cx="40.72" cy="135.14" r="6.67"/><path d="m693.29 498.11s78-58.25 9-174c-18.62-31.21-17.55-40.06-36.78-95.86-50.59-146.88-174-6.48-241.13-66.5-52.23-46.65 12.09-157.14-193.82-103.75-58.84 15.24-111.51 46.81-138.63 129.5-19 58 14.87 112.23-33.46 155.23s-35.18 44.56-33.18 89.41 27 66.71 27 66.71z"/></g><path d="m659.24 330.78v159.71h-65.91v-159.71zm-60.12 154.16h54.33v-46.25h-54.33zm0-51.8h54.33v-46.25h-54.33zm0-51.8h54.33v-46.25h-54.33z" fill="#96a9a8"/><path d="m616.12 341.44h8.5v39.9h-8.5z" fill="#7c9391" transform="matrix(-1 0 0 -1 1240.74 722.78)"/><path d="m628.97 341.44h6.21v39.9h-6.21z" fill="#7c9391" transform="matrix(-.97503322 .22205905 -.22205905 -.97503322 1328.62 573.39)"/><path d="m639.14 341.99h6.21v39.9h-6.21z" fill="#7c9391" transform="matrix(-.90726434 .42056083 -.42056083 -.90726434 1377.14 420.2)"/><path d="m607.62 345.94h8.5v35.4h-8.5z" fill="#7c9391" transform="matrix(-1 0 0 -1 1223.74 727.28)"/><path d="m599.12 338.69h8.5v42.65h-8.5z" fill="#7c9391" transform="matrix(-1 0 0 -1 1206.74 720.03)"/><path d="m640.57 314.48h-28.57l3-24.81h22.57z" fill="#7c9391"/><path d="m633 313.6v-.1a6.68 6.68 0 0 0 -6.6-6.56 6.61 6.61 0 0 0 -6.79 6.51v.36a9.92 9.92 0 0 1 -1.33 5.32 8.57 8.57 0 0 0 -1.07 3.93 8.88 8.88 0 0 0 4.33 7.72h9.58a8.78 8.78 0 0 0 4.26-7.49 8.63 8.63 0 0 0 -1.23-4.44 9.53 9.53 0 0 1 -1.15-5.25z" fill="#7c9391"/><path d="m78.01 284.52h77.56v5.2h-77.56z" fill="#96a9a8"/><path d="m106.37 251.45h7.22v33.91h-7.22z" fill="#7c9391" transform="matrix(-1 0 0 -1 219.97 536.81)"/><path d="m117.3 251.45h5.28v33.91h-5.28z" fill="#7c9391" transform="matrix(-.98 .22 -.22 -.98 296.48 503.47)"/><path d="m125.94 251.91h5.28v33.91h-5.28z" fill="#7c9391" transform="matrix(.90726434 -.42056083 .42056083 .90726434 -101.15 79.01)"/><path d="m99.15 255.27h7.22v30.09h-7.22z" fill="#7c9391" transform="matrix(-1 0 0 -1 205.52 540.63)"/><path d="m91.93 258.49h7.22v26.87h-7.22z" fill="#7c9391" transform="matrix(-1 0 0 -1 191.08 543.85)"/><path d="m50.05 471.87s-7.26-51.52-33.95-58.08c0 0-4.68 6.16 4.68 12.45s6.33 9.1 8.2 14.72 9.13 5.43 9.83 13.13 11.24 17.78 11.24 17.78z" fill="#7c9391"/><path d="m49.81 471.87s-6.34-51.64 17.75-64.87c0 0 6.12 4.73-1.3 13.23s-3.75 10.43-4.1 16.34-7.42 7.62-6.1 15.24-6.25 20.06-6.25 20.06z" fill="#7c9391"/><path d="m51 469.41s15.9-39.25 38.28-39.16c0 0 2.48 5.79-6.16 8.9s-6.78 5.94-9.37 10-8.29 2.49-10.36 8.43-12.39 11.83-12.39 11.83z" fill="#7c9391"/><path d="m62.23 492.01h-24.24l-3.51-24.93h31.96z" fill="#96a9a8"/><rect fill="#526c6d" height="14.93" rx="7.47" transform="matrix(-1 0 0 -1 766.22 999.21)" width="730.46" x="17.88" y="492.14"/><path d="m417.33 295.39h.44z" fill="#596ab2"/><path d="m404.57 295.39h-.44s0 0 0 0z" fill="#596ab2"/><path d="m434.77 325.32a.42.42 0 0 0 0 .43z" fill="#596ab2"/><path d="m25.81 251.25 47.72-5.69-22.55 41.24-7.15-11.42-17.95 15.6-12.62-15.42 21.78-15.3z" fill="var(--pages-home-images-background, #ededed)"/><path d="m487.46 66.43-50.99 46.24 65.78 14.38-5.64-18.46 33.73-4.75-4.8-28.14-37.01 9.17z" fill="var(--pages-home-images-background, #ededed)"/><path d="m235.43 268.27a16.26 16.26 0 1 1 -16.25 16.25 16.25 16.25 0 0 1 16.25-16.25zm0 24.66a8.41 8.41 0 1 0 -8.41-8.41 8.41 8.41 0 0 0 8.41 8.41z" fill="#96a9a8"/><path d="m580.83 259.12a12.81 12.81 0 1 1 -12.83 12.8 12.81 12.81 0 0 1 12.83-12.8zm0 19.43a6.63 6.63 0 1 0 -6.63-6.63 6.63 6.63 0 0 0 6.63 6.63z" fill="#96a9a8"/><path d="m121.9 180.8a12.81 12.81 0 1 1 -12.81 12.81 12.81 12.81 0 0 1 12.81-12.81zm0 19.44a6.63 6.63 0 1 0 -6.63-6.63 6.62 6.62 0 0 0 6.63 6.63z" fill="#96a9a8"/><path d="m710 263.05a12.81 12.81 0 1 1 -12.81 12.81 12.8 12.8 0 0 1 12.81-12.81zm0 19.43a6.63 6.63 0 1 0 -6.63-6.62 6.62 6.62 0 0 0 6.63 6.62z" fill="var(--pages-home-images-background, #ededed)"/><path d="m550.15 150.47a12.81 12.81 0 1 1 -12.8 12.81 12.8 12.8 0 0 1 12.8-12.81zm0 19.43a6.63 6.63 0 1 0 -6.62-6.62 6.62 6.62 0 0 0 6.62 6.62z" fill="var(--pages-home-images-background, #ededed)"/><path d="m476.81 150a12.81 12.81 0 1 1 -12.81 12.82 12.81 12.81 0 0 1 12.81-12.82zm0 19.43a6.63 6.63 0 1 0 -6.63-6.62 6.62 6.62 0 0 0 6.63 6.63z" fill="var(--pages-home-images-background, #ededed)"/><path d="m532.91 126.33a8.81 8.81 0 1 1 -8.81 8.81 8.8 8.8 0 0 1 8.81-8.81zm0 13.36a4.56 4.56 0 1 0 -4.56-4.55 4.55 4.55 0 0 0 4.56 4.55z" fill="var(--pages-home-images-background, #ededed)"/><path d="m541.45 331.2-8.06 27.54-27.55-8.07 8.07-27.54zm-27.06 14.8 14.32 4.19 4.2-14.32-14.33-4.19z" fill="#96a9a8"/><path d="m680.44 284.6-4.19 14.33-14.33-4.2 4.2-14.32zm-14.07 7.7 7.45 2.18 2.18-7.48-7.45-2.18z" fill="#96a9a8"/><path d="m473 50.19-6.59 22.48-22.48-6.58 6.58-22.49zm-22.1 12.08 11.7 3.42 3.4-11.69-11.69-3.42z" fill="var(--pages-home-images-background, #ededed)"/><path d="m299.25 125.4-8.07 27.54-27.54-8.06 8.06-27.55zm-27.07 14.8 14.33 4.19 4.19-14.32-14.32-4.19z" fill="#96a9a8"/><path d="m366.88 152.75-6.5 18 1.02 11.2 2.23 5.55h44.25l5.25-8.75-4-19.75z" fill="var(--colors-primary, #d64541)"/><rect fill="#212828" height="27.31" rx="6.49" width="457.99" x="152.46" y="466.61"/><path d="m188 182.61h391a13.5 13.5 0 0 1 13.5 13.5v270.5a0 0 0 0 1 0 0h-418a0 0 0 0 1 0 0v-270.5a13.5 13.5 0 0 1 13.5-13.5z" fill="#181e1f"/><path d="m185.46 193.61h393.17v260h-393.17z" fill="#f4f5f9"/><path d="m370.88 253.61h186.25v59.61h-186.25z" fill="#dde0e8"/><path d="m370.88 327.61h87.58v59.61h-87.58z" fill="#dde0e8"/><path d="m370.88 397.11h87.58v56.5h-87.58z" fill="#dde0e8"/><path d="m469.55 397.11h87.58v56.5h-87.58z" fill="#dde0e8"/><path d="m469.55 327.61h87.58v59.61h-87.58z" fill="#dde0e8"/><path d="m539.13 215.28h18v2.67h-18z" fill="#b6bac6"/><path d="m539.13 221.78h18v2.67h-18z" fill="#b6bac6"/><path d="m539.13 228.28h18v2.67h-18z" fill="#b6bac6"/><path d="m211.46 215.28h74v21.33h-74z" fill="#b6bac6"/><path d="m211.46 253.61h129v113.43h-129z" fill="#dde0e8"/><path d="m211.46 377.58h129v7.03h-129z" fill="#dde0e8"/><path d="m211.46 395.15h112.75v7.03h-112.75z" fill="#dde0e8"/><path d="m211.46 410.9h129v7.03h-129z" fill="#dde0e8"/><path d="m211.46 426.65h120.25v7.03h-120.25z" fill="#dde0e8"/><path d="m102 386 6.33 7.79s3.23 23.5-27.21 56.16-33.12 35-33.12 35l-2.57-2.18.9-1.82s37-59.2 36.73-72.66 18.94-22.29 18.94-22.29z" fill="#2d2d2d"/><path d="m132 483.58s0 10.67 2.83 10.33 15.5-6.5 15-9-13.83 1.34-13.83 1.34z" fill="#2d2d2d"/><path d="m97.62 391.91s14.41 13 21.71 36.34 16.62 58 16.62 58l-3.71 2.13s-32-56.8-58.62-73.8c0 0-17.17-12-15.59-20.83s39.59-1.84 39.59-1.84z" fill="#3a3a3a"/><path d="m89.85 319.58s10.68-.58 14.68 19.67 8 43.75 3.75 46.25v8.25s-31.75 7.75-50.25 0v-5.84s-4.75-12.16 0-46.16c0 0 1-21.92 12.25-21.84s19.57-.33 19.57-.33z" fill="var(--colors-primary, #d64541)"/><path d="m88.78 304.87 1.06-.5s3.94-2.75 2.57-8.62.33-6 .29-7.38-22.42-8.75-25.29 8.25c0 0-7 10.35 8 18.13s.83-12.17.83-12.17z" fill="#1e1e1e"/><path d="m89.45 298.25s2.67 18.66-5.83 16.83v4.5h3.46s-1.38 7.21-6.71 6.67-8.09-6.34-8.09-6.34h2.84l.33-5.16s1.67-4.5 0-7c0 0-6.5-4.34.83-5.17a4.24 4.24 0 0 0 -.7-4.92c4.79.25 9.61.52 12.5-1.5.85.07 1.32.74 1.37 2.09z" fill="#faab6c"/><path d="m69.47 320s-19.85-.37-25.85 37.3c-.95 6 1.2 16.33 5.41 19.68a42.79 42.79 0 0 0 28.59 9z" fill="var(--colors-primary, #d64541)"/><path d="m92.7 320.16c5.57 1.5 15 13.06 21.73 23.44 0 0 17.19-18 25.52-18.32l4.67-3 3.33 6.27-3.67 2.7s-21 36.89-36 27.76-15.58-38.85-15.58-38.85z" fill="var(--colors-primary, #d64541)"/><circle cx="187.77" cy="270.43" fill="url(#a)" r="45.34"/><path d="m151.67 238.29a48.33 48.33 0 1 1 7.47 71.08l-70.65 84.25c-2 2.34-6.25 1.9-9.49-1-3.24-2.89-4.18-7.09-2.08-9.31l75.49-79.94a48.34 48.34 0 0 1 -.74-65.08zm7.65 64.1a42.79 42.79 0 1 0 -3.52-60.39 42.78 42.78 0 0 0 3.52 60.39z" fill="#181e1f"/><path d="m152 316.1c1.22 2.31 2 6.67-4.06 12.48l-1.94-3.58s1.86-2.95 1.21-4.65c0 0-1.85-4.13.77-5.59a3 3 0 0 1 4.02 1.34z" fill="#faab6c"/><path d="m94.28 374.75s6.75.25 9-2.75 4.07-.38.3 3.63c2.83-.68-.5 9.31-6.07 7.24a12.1 12.1 0 0 1 -4.81-3.12v-4.8z" fill="#faab6c"/><path d="m74 367s13.88 3.46 15.82 6.21l4.43 1.5-1.58 5h-3.89s-9.94 3.62-25.34 3.06 10.56-15.77 10.56-15.77z" fill="var(--colors-primary, #d64541)"/><path d="m49.53 481.12-4.15 1.61s-6 1.52-5 5.14 6.75 5.88 6.75 5.88h12s1.37-3.46-4.75-4.34-5.88-5-5.88-5z" fill="#2d2d2d"/><path d="m656.2 388.49s-8.14 10.44-11.32 36.18c0 0-1.38-7.17-4.33 3.33 1.39-2.24 5.19 11.17 13.25 7 10.74-5.58 13.27-29.79 13.27-29.79z" fill="var(--colors-primary, #d64541)"/><path d="m729.87 391.14s3.13-2.69.11-3.35-.11 3.35-.11 3.35z" fill="#faab6c"/><path d="m658.25 443.8c1.67 5.34-4.33 51 9.67 49.67a207.23 207.23 0 0 0 29-5.33l2.66-5-4.33-1.34s-26.58 9.59-11.33-19.16c15.99-30.16-25.67-18.84-25.67-18.84z" fill="#2d2d2d"/><path d="m673 381.39 1.23-2.88s13.32-7.8 24.85 10.88c14.26 23.1 14.79-.92 18.51-2.41l.9-3 6 2.11a33.88 33.88 0 0 1 -.89 3.48c1 1.8-2.65 44.15-25.36 24.58 0 0 7.54 22.22 4 25.71l-.69 6.7-46.39-5.2s-12.11-47.6 6.11-57.56c23.08-12.63 11.73-2.41 11.73-2.41z" fill="var(--colors-primary, #d64541)"/><path d="m696.92 488.14-1.67-6.34s4.5-1.33 5.5-.66 2.33 14.39-1.17 14.36-6-.36-4.33-2.86 2.5-1.33 1.67-4.5z" fill="#2d2d2d"/><path d="m701.63 445.19s0 21.45-19.55 21.45c-11.68 0-42.74-18.43-44.5-8.5-3.22 18.23-3 30-3 30l-4.66 3-1-3.67s-11.34-43.5 2.41-48.83c9.76-3.79 47.59 1.56 47.59 1.56z" fill="#3a3a3a"/><path d="m634.58 493.5s-15.16 1.14-15.33-1.36 9.87-3.92 9.87-3.92l5.46-.08s1.03 5.29 0 5.36z" fill="#2d2d2d"/><path d="m668.61 374.7s5.12-2.72.91-14.46l-11.94-5.38-3.16 6.14z" fill="#1e1e1e"/><path d="m646.77 365.73s6 16.31 13.39 14.71 9.65-7.69 8.39-10.48c0 0 5.53-5.73-1.6-5.1l-2.63-6.68-12.7-2.18z" fill="#faab6c"/><path d="m669.52 360.24s-4.08-13.54-14.26-9.89c-7.1 2.55-11.89 6-8.29 15.93.03 0 8.23-6.07 22.55-6.04z" fill="var(--colors-primary, #d64541)"/><path d="m666.4 370.43 2.15-.47 3 9.05 2.68-.5s-3.33 10.17-9.47 9.22-3.49-3.94-3.49-3.94l-1.37-4.1z" fill="#faab6c"/><path d="m665.5 360.4s-12 7.86-15.75 8.57-3.36-.36-6.49 2.41c0 0-1.48-.37 3.71-5.1s12.54-7.76 18.53-5.88z" fill="var(--colors-primary, #d64541)"/><path d="m706.77 297.37 6 6.67-10.44 20.1 8.09 17.15 21.82-1.08 9.9-14.42-9.83-20.79 7.67-4.84c46.41 41.31-9.1 56.33-9.1 56.33l-4.3 130.11a10.22 10.22 0 0 1 -10.58 9.84 10.23 10.23 0 0 1 -9.88-10.55l4.29-129.61h-.86c-40.97-28.97-2.78-58.91-2.78-58.91zm9.6 193.63a5.82 5.82 0 1 0 -5.81-5.81 5.82 5.82 0 0 0 5.81 5.81z" fill="#181e1f"/><path d="m729.87 391.14s1.59-.75 1.84 2.12 1.46 6.39-2.15 7.13-5.9-6.13.31-9.25z" fill="#faab6c"/><path d="m331.71 111.16q1.85-18.33 22.34-22.33c-12.24-3-19.78-10.35-22.34-22.34-2.19 11.65-9.07 19.55-22.33 22.34 15.43.88 22.37 8.73 22.33 22.33z" fill="#96a9a8"/><path d="m359.72 72.34q1.13-11.18 13.63-13.63c-7.47-1.82-12.07-6.32-13.63-13.63-1.34 7.11-5.54 11.93-13.63 13.63 9.41.54 13.65 5.29 13.63 13.63z" fill="#96a9a8"/><path d="m635.81 396.42h19.87v33.16h-19.87z" fill="#596ab2" transform="matrix(.99126165 -.13191038 .13191038 .99126165 -48.86 88.85)"/><path d="m639.81 395.88h7.37v2.55h-7.37z" fill="#9494bf" transform="matrix(-.9900973 .14038284 -.14038284 -.9900973 1336.37 700.06)"/><path d="m379 99.27-5.81-5.61s-6.06-14 0-19.53c0 0 4.94-11 20.19-6.75s11.1 21.53 8.3 26.8-22.68 5.09-22.68 5.09z" fill="#1e1e1e"/><path d="m361 163.84s-4.66 15.23 3.94 19a6 6 0 0 1 3.31 6.87l-7.62 33.29 9 1.75 17.25-38.5s.15 7.5 1.7 9.5 15.55 29 15.55 29l6.58-2.42s-9.83-33.61-5.58-39.72c0 0 13.25 3.39 10.75-23.8-1.63-17.69-24-15.81-24-15.81z" fill="#3a3a3a"/><path d="m386.21 70.17-15.71 10.33s.71 22-1.45 24.66 32 3.5 36.5 0c0 0-1.68-13.24-1.18-23.53z" fill="#1e1e1e"/><path d="m636 414.76s-3.26 5.22 1.12 8.43c0 0 11-4.52 3.48-10.4-1.71-1.34-4.36 3.77-4.36 3.77z" fill="#faab6c"/><path d="m355.1 157.34s-10.92 2-9.71-17.8 18.28-39.64 35.38-40l17.09-.31s20.43 5.48 31.52 36.63c4.54 12.77-2.87 20.13-13.21 24.37 0 0 4.46 16.23-3 18.48-5-24.25-53-30.75-51.73 3.2-3.04-1.71-6.34-24.57-6.34-24.57z" fill="var(--colors-primary, #d64541)"/><path d="m376.13 98.9s11.36 13.72 22.75.55c0 0 5.63-.81 3.5-4.73 0 0-3.21-1.78-2.14-6.4 0 0-16.55 6.35-23.76.51 0 0-.09 1.62-3.29 4.83 0 0-3.47 3.11 2.94 5.24z" fill="#faab6c"/><rect fill="#f4f5f9" height="32.77" rx="2.97" width="50.37" x="361.4" y="140.03"/><path d="m376.47 83.2-5.1 4.87s1.09 18.28-1.87 20.81a7.11 7.11 0 0 1 -3.62 1.75s5.62 5.37 9.5 2.37 2.89-12 2.89-12z" fill="#1e1e1e"/><path d="m397.88 89.11 5.15-4s-.33 21.21 2.63 23.75a7.11 7.11 0 0 0 3.62 1.75s-5.62 5.37-9.5 2.37-2.89-12-2.89-12z" fill="#1e1e1e"/><path d="m366.88 212.33-6.25 10.67s-3.08 15.67 2.08 17 6.92-15.25 6.92-15.25z" fill="#3a3a3a"/><path d="m404.88 218.5-.75 6.25s-5.25 13.24 0 15.33 6.58-17.75 6.58-17.75z" fill="#3a3a3a"/><path d="m274.42 282.9h198.25v95.33h-198.25z" fill="#212828"/><path d="m378.06 319.67a2.05 2.05 0 0 0 .55-.16 1.55 1.55 0 0 0 .92-.85 4.66 4.66 0 0 0 .22-1.48 12.63 12.63 0 0 0 -.23-2.3 7.5 7.5 0 0 0 -.78-2.2 1.74 1.74 0 0 0 -1.94-.89 7.14 7.14 0 0 1 -3.12.07 4.5 4.5 0 0 1 -3.3-2.53 5 5 0 0 1 .27-5c.11-.18.23-.36.33-.55a1.52 1.52 0 0 0 0-1.59 5.75 5.75 0 0 0 -1.54-1.89 7.51 7.51 0 0 0 -3.19-1.59l-.4-.07a.88.88 0 0 0 -.6.1 2.9 2.9 0 0 0 -1.07.93 5.43 5.43 0 0 1 -.66.84 5.38 5.38 0 0 1 -2.66 1.5 5.44 5.44 0 0 1 -2.6-.09 3.89 3.89 0 0 1 -1.57-.79 5.77 5.77 0 0 1 -2-3.29 3.34 3.34 0 0 0 -.32-.9 1.13 1.13 0 0 0 -.85-.63l-.38-.07a2.89 2.89 0 0 0 -.58-.08 9.61 9.61 0 0 0 -4.33.78 3.08 3.08 0 0 0 -1.11.85 1.39 1.39 0 0 0 -.31 1 8.55 8.55 0 0 1 -.61 3.94 4.2 4.2 0 0 1 -1.05 1.69 5 5 0 0 1 -4.9 1 7.63 7.63 0 0 1 -1.81-.84 1.67 1.67 0 0 0 -1.93.1 5.69 5.69 0 0 0 -1.23 1.22 8.5 8.5 0 0 0 -1.45 2.72l-.2 1s0 .05 0 .07a1.82 1.82 0 0 0 .79 1.68 7.12 7.12 0 0 1 2.5 2.86 4.39 4.39 0 0 1 -.69 4.71 7.13 7.13 0 0 1 -2 1.51 7.72 7.72 0 0 1 -1.91.66 1.42 1.42 0 0 0 -.94.75c-.1.17-.11.38-.21.55v.09a.81.81 0 0 1 -.08.43v.23.54a9.7 9.7 0 0 0 .86 4 2.15 2.15 0 0 0 2.26 1.26 7.89 7.89 0 0 1 3 .23 4 4 0 0 1 1.84 1 4.44 4.44 0 0 1 1.2 3.89 5.62 5.62 0 0 1 -1.05 2.38 1.93 1.93 0 0 0 .12 2.58 8.41 8.41 0 0 0 2.08 1.82 7.77 7.77 0 0 0 3 1.32 1.88 1.88 0 0 0 2-.86 5.27 5.27 0 0 1 .52-.72 6.61 6.61 0 0 1 1.79-1.41 4.57 4.57 0 0 1 4.83.1 5.55 5.55 0 0 1 2.43 3.61 3.39 3.39 0 0 0 .25.76 1.46 1.46 0 0 0 .95.94 6.08 6.08 0 0 0 1 .16 9.15 9.15 0 0 0 3.66-.63 4.44 4.44 0 0 0 1.17-.59 2 2 0 0 0 .75-2.2 5.56 5.56 0 0 1 .19-3.18 4.57 4.57 0 0 1 2.19-2.58 4.92 4.92 0 0 1 3.38-.27 8.6 8.6 0 0 1 2.28.9 2 2 0 0 0 .54.19 2.73 2.73 0 0 0 2.27-.68 8 8 0 0 0 2.4-3.72 2.27 2.27 0 0 0 -.13-2 3.24 3.24 0 0 0 -1-1 5 5 0 0 1 -1.34-7.09 5.64 5.64 0 0 1 3.53-2.24zm-24.76 11.4a10.92 10.92 0 1 1 12.79-8.72 10.93 10.93 0 0 1 -12.79 8.72z" fill="var(--colors-primary, #d64541)"/><path d="m411.52 325.92a1.65 1.65 0 0 0 .37-.2 1.11 1.11 0 0 0 .51-.76 3.14 3.14 0 0 0 -.09-1.1 8.18 8.18 0 0 0 -.55-1.6 5.05 5.05 0 0 0 -.92-1.44 1.27 1.27 0 0 0 -1.54-.31 5.17 5.17 0 0 1 -2.22.56 3.3 3.3 0 0 1 -2.79-1.25 3.71 3.71 0 0 1 -.65-3.65l.15-.45a1.14 1.14 0 0 0 -.25-1.14 4.57 4.57 0 0 0 -1.42-1.09 5.41 5.41 0 0 0 -2.55-.6h-.32a.61.61 0 0 0 -.41.17 2.15 2.15 0 0 0 -.61.85 3.81 3.81 0 0 1 -.33.71 4 4 0 0 1 -1.65 1.52 4.06 4.06 0 0 1 -1.88.37 2.87 2.87 0 0 1 -1.25-.3 4.27 4.27 0 0 1 -2-2 2.29 2.29 0 0 0 -.38-.59.83.83 0 0 0 -.71-.32h-.32a2.09 2.09 0 0 0 -.43 0 7 7 0 0 0 -3 1.29 2.08 2.08 0 0 0 -.65.79 1 1 0 0 0 -.06.75 6.43 6.43 0 0 1 .23 2.92 3.24 3.24 0 0 1 -.47 1.39 3.7 3.7 0 0 1 -3.34 1.53 5.86 5.86 0 0 1 -1.44-.3 1.24 1.24 0 0 0 -1.36.39 4.42 4.42 0 0 0 -.68 1.09 6.29 6.29 0 0 0 -.58 2.18v.77s0 0 0 .06a1.31 1.31 0 0 0 .84 1.07 5.12 5.12 0 0 1 2.27 1.62 3.23 3.23 0 0 1 .3 3.48 5 5 0 0 1 -1.17 1.41 5.66 5.66 0 0 1 -1.25.8 1 1 0 0 0 -.55.69c0 .14 0 .29-.06.43v.07a.69.69 0 0 1 0 .32v.17c0 .13 0 .27.06.4a7.18 7.18 0 0 0 1.29 2.72 1.59 1.59 0 0 0 1.83.52 5.86 5.86 0 0 1 2.2-.34 2.87 2.87 0 0 1 1.48.38 3.24 3.24 0 0 1 1.5 2.58 4.07 4.07 0 0 1 -.35 1.88 1.41 1.41 0 0 0 .52 1.82 6.3 6.3 0 0 0 1.79.95 5.74 5.74 0 0 0 2.39.44 1.39 1.39 0 0 0 1.3-1 3.37 3.37 0 0 1 .25-.59 4.75 4.75 0 0 1 1-1.32 3.37 3.37 0 0 1 3.47-.74 4.08 4.08 0 0 1 2.34 2.18 3.3 3.3 0 0 0 .31.51 1.11 1.11 0 0 0 .84.51 5 5 0 0 0 .77-.07 6.8 6.8 0 0 0 2.51-1.06 3.17 3.17 0 0 0 .74-.62 1.46 1.46 0 0 0 .17-1.7 4.06 4.06 0 0 1 -.4-2.3 3.35 3.35 0 0 1 1.13-2.21 3.62 3.62 0 0 1 2.37-.76 6.27 6.27 0 0 1 1.78.25 1.21 1.21 0 0 0 .42.05 2 2 0 0 0 1.51-.87 5.82 5.82 0 0 0 1.06-3 1.64 1.64 0 0 0 -.43-1.41 2.35 2.35 0 0 0 -.85-.53 3.67 3.67 0 0 1 -2.15-4.85 4.18 4.18 0 0 1 2.36-2.12zm-15.8 12.32a8 8 0 1 1 7.69-8.39 8 8 0 0 1 -7.69 8.39z" fill="var(--colors-primary, #d64541)"/><rect fill="#ced2d8" height="3.93" rx="1.97" width="169.08" x="290.67" y="360.24"/><rect fill="#f4f5f9" height="3.93" rx="1.97" width="124.33" x="290.67" y="360.24"/></g></svg>